<?xml version='1.0' encoding='ascii'?>
<svg xmlns="http://www.w3.org/2000/svg" version="1.1" width="1920" height="1080">
    <g id="ViewLayer_LineSet" xmlns:inkscape="http://www.inkscape.org/namespaces/inkscape" inkscape:groupmode="lineset" inkscape:label="ViewLayer_LineSet">
        <g xmlns:inkscape="http://www.inkscape.org/namespaces/inkscape" inkscape:groupmode="layer" id="strokes" inkscape:label="strokes">
            <path fill="none" stroke-width="5.0" stroke-linecap="butt" stroke-opacity="1.0" stroke="rgb(255, 255, 255)" stroke-linejoin="round" d=" M 963.041, -11.919 962.984, -1.920 962.928, 8.080 962.871, 18.080 962.815, 28.080 962.758, 38.080 962.702, 48.080 962.645, 58.079 962.589, 68.079 962.532, 78.079 962.476, 88.079 962.419, 98.079 962.363, 108.079 962.306, 118.078 962.250, 128.078 962.193, 138.078 962.137, 148.078 962.081, 158.078 962.024, 168.078 961.967, 178.078 961.911, 188.077 961.854, 198.077 961.798, 208.077 961.742, 218.077 961.685, 228.077 961.629, 238.077 961.572, 248.076 961.516, 258.076 961.493, 262.095 961.981, 272.083 962.470, 282.071 962.958, 292.059 963.447, 302.047 963.935, 312.036 964.424, 322.024 964.744, 328.560 965.232, 338.548 965.721, 348.536 966.209, 358.524 966.698, 368.512 967.186, 378.500 967.403, 382.923 " />
            <path fill="none" stroke-width="5.0" stroke-linecap="butt" stroke-opacity="1.0" stroke="rgb(255, 255, 255)" stroke-linejoin="round" d=" M 1105.376, 743.021 1111.147, 734.854 1116.918, 726.687 1122.689, 718.521 1128.460, 710.354 1129.798, 708.460 1129.400, 698.468 1129.002, 688.476 1128.604, 678.483 1128.206, 668.491 1127.808, 658.499 1127.410, 648.507 1127.012, 638.515 1126.670, 629.934 1126.275, 619.942 1125.880, 609.950 1125.485, 599.958 1125.090, 589.966 1124.696, 579.973 1124.301, 569.981 1123.906, 559.989 1123.511, 549.997 1123.116, 540.005 1122.905, 534.676 1121.212, 524.820 1119.519, 514.965 1117.826, 505.109 1116.132, 495.253 1114.439, 485.398 1112.746, 475.542 1111.053, 465.687 1109.359, 455.831 1107.666, 445.975 1107.306, 443.877 1107.558, 433.880 1107.810, 423.883 1108.062, 413.887 1108.314, 403.890 1108.566, 393.893 1108.818, 383.896 1109.070, 373.899 1109.322, 363.902 1109.574, 353.906 1109.826, 343.909 1110.078, 333.912 1110.175, 330.057 1107.720, 320.363 1105.266, 310.669 1102.811, 300.975 1100.356, 291.281 1097.902, 281.587 1095.447, 271.893 1093.374, 263.706 1092.425, 253.751 1091.476, 243.796 1090.527, 233.841 1089.578, 223.887 1088.629, 213.932 1087.681, 203.977 1086.732, 194.022 1085.783, 184.067 1084.834, 174.112 1083.885, 164.157 1082.936, 154.202 1081.987, 144.248 1081.038, 134.293 1080.090, 124.338 1079.141, 114.383 1078.192, 104.428 1077.243, 94.473 1076.294, 84.518 1075.345, 74.563 1074.396, 64.609 1073.448, 54.654 1072.499, 44.699 1071.550, 34.744 1070.601, 24.789 1069.817, 16.561 1069.639, 6.563 1069.461, -3.436 1069.284, -13.434 1069.106, -23.433 1068.928, -33.431 1068.751, -43.429 1068.573, -53.428 1068.395, -63.426 1068.218, -73.425 1068.040, -83.423 1067.862, -93.422 1067.685, -103.420 1067.507, -113.418 1067.329, -123.417 1067.151, -133.415 1066.974, -143.414 1066.796, -153.412 1066.619, -163.411 1066.441, -173.409 1066.263, -183.407 1066.085, -193.406 1065.908, -203.404 1065.750, -212.316 " />
            <path fill="none" stroke-width="5.0" stroke-linecap="butt" stroke-opacity="1.0" stroke="rgb(255, 255, 255)" stroke-linejoin="round" d=" M 848.014, -158.281 850.706, -148.650 853.398, -139.019 856.091, -129.388 858.783, -119.757 861.475, -110.127 864.167, -100.496 866.859, -90.865 869.551, -81.234 872.243, -71.603 874.935, -61.973 877.628, -52.342 880.320, -42.711 883.012, -33.080 885.704, -23.449 888.396, -13.818 891.088, -4.188 893.780, 5.443 896.472, 15.074 899.165, 24.705 901.891, 34.458 902.204, 44.453 902.518, 54.448 902.831, 64.443 903.145, 74.438 903.458, 84.433 903.772, 94.428 904.085, 104.423 904.399, 114.419 904.712, 124.414 905.026, 134.409 905.339, 144.404 905.653, 154.399 905.966, 164.394 906.280, 174.389 906.593, 184.384 906.907, 194.379 907.220, 204.374 907.534, 214.369 907.847, 224.365 908.161, 234.360 908.474, 244.355 908.788, 254.350 909.101, 264.345 909.415, 274.340 909.728, 284.335 909.971, 292.055 911.822, 301.882 913.674, 311.709 915.525, 321.536 917.377, 331.363 919.247, 341.287 915.585, 350.593 911.924, 359.899 908.262, 369.204 904.601, 378.510 900.939, 387.815 897.278, 397.121 893.616, 406.426 891.897, 410.795 888.236, 420.100 887.239, 422.633 " />
            <path fill="none" stroke-width="5.0" stroke-linecap="butt" stroke-opacity="1.0" stroke="rgb(255, 255, 255)" stroke-linejoin="round" d=" M 700.228, 724.423 704.048, 715.181 707.868, 705.939 711.687, 696.697 715.507, 687.455 719.326, 678.214 723.146, 668.972 726.966, 659.730 728.029, 657.157 733.975, 649.116 739.920, 641.076 745.866, 633.035 751.811, 624.995 757.757, 616.954 763.703, 608.914 769.648, 600.873 775.594, 592.833 781.539, 584.792 787.485, 576.752 793.430, 568.711 799.376, 560.670 805.321, 552.630 809.575, 546.878 814.875, 538.398 820.176, 529.918 825.477, 521.439 830.777, 512.959 836.078, 504.480 841.378, 496.000 846.679, 487.520 851.979, 479.041 857.280, 470.561 862.580, 462.081 867.881, 453.602 873.181, 445.122 878.482, 436.643 883.783, 428.163 887.239, 422.633 " />
            <path fill="none" stroke-width="5.0" stroke-linecap="butt" stroke-opacity="1.0" stroke="rgb(255, 255, 255)" stroke-linejoin="round" d=" M 961.273, 820.234 963.852, 829.896 966.432, 839.557 969.011, 849.219 969.995, 852.904 967.109, 862.479 964.223, 872.053 961.337, 881.628 958.451, 891.202 955.565, 900.777 952.679, 910.351 949.793, 919.926 946.907, 929.500 944.021, 939.075 942.492, 944.147 938.099, 953.131 933.706, 962.114 929.313, 971.098 924.920, 980.081 923.314, 983.364 924.500, 993.293 925.685, 1003.223 926.693, 1011.670 936.051, 1008.144 945.409, 1004.618 954.767, 1001.092 955.485, 1000.821 961.777, 993.049 968.069, 985.276 974.361, 977.504 980.653, 969.731 986.945, 961.959 993.237, 954.187 999.530, 946.414 1000.688, 944.983 1003.872, 935.503 1007.056, 926.024 1010.240, 916.544 1012.679, 909.283 1013.989, 905.382 1017.173, 895.902 1020.357, 886.422 1023.541, 876.943 1026.570, 867.922 1027.796, 864.274 1030.980, 854.794 1032.063, 851.568 1035.247, 842.088 1035.348, 841.788 1037.312, 831.983 1039.275, 822.178 1041.239, 812.372 1043.203, 802.567 1045.166, 792.762 1046.635, 785.427 1047.355, 781.833 1047.700, 780.110 1049.663, 770.305 1051.627, 760.499 1053.591, 750.694 1053.861, 749.342 1054.930, 744.005 1056.894, 734.200 1058.858, 724.395 1060.821, 714.589 1062.785, 704.784 1063.546, 700.982 " />
            <path fill="none" stroke-width="5.0" stroke-linecap="butt" stroke-opacity="1.0" stroke="rgb(255, 255, 255)" stroke-linejoin="round" d=" M 891.897, 410.795 884.262, 417.252 876.626, 423.710 868.990, 430.167 861.355, 436.624 853.719, 443.081 846.083, 449.539 838.448, 455.996 830.812, 462.453 823.176, 468.911 815.541, 475.368 807.905, 481.825 800.270, 488.283 792.634, 494.740 790.706, 496.370 786.612, 505.494 782.519, 514.617 778.425, 523.741 774.331, 532.864 770.237, 541.988 766.143, 551.111 762.049, 560.235 757.955, 569.358 753.861, 578.482 749.767, 587.606 745.673, 596.729 741.579, 605.853 737.485, 614.976 733.391, 624.100 729.422, 632.945 725.431, 642.114 721.440, 651.283 717.449, 660.452 713.458, 669.621 709.467, 678.790 705.476, 687.959 701.485, 697.128 697.494, 706.297 695.711, 710.395 698.776, 719.913 700.228, 724.423 710.050, 726.303 719.871, 728.184 723.986, 728.972 729.548, 720.662 735.111, 712.351 740.673, 704.041 746.236, 695.731 751.798, 687.421 757.361, 679.111 762.923, 670.801 767.766, 663.566 775.421, 657.131 783.076, 650.697 790.730, 644.262 798.385, 637.828 806.040, 631.393 813.695, 624.959 821.350, 618.524 829.005, 612.090 834.480, 607.487 836.056, 617.362 837.632, 627.238 839.208, 637.113 840.784, 646.988 841.268, 650.022 844.664, 659.427 848.060, 668.833 851.456, 678.239 854.852, 687.644 858.249, 697.050 861.645, 706.456 865.041, 715.861 868.437, 725.267 871.833, 734.673 873.502, 739.295 875.140, 749.160 876.777, 759.025 878.414, 768.890 880.052, 778.755 881.689, 788.620 883.326, 798.485 884.964, 808.350 886.601, 818.215 888.238, 828.081 889.876, 837.946 891.513, 847.811 893.150, 857.676 894.788, 867.541 895.285, 870.535 892.998, 880.271 890.712, 890.006 888.425, 899.741 886.139, 909.476 883.852, 919.211 881.566, 928.946 879.280, 938.681 876.993, 948.416 874.707, 958.151 872.420, 967.886 870.562, 975.797 868.882, 985.655 867.202, 995.513 865.522, 1005.371 863.842, 1015.229 862.162, 1025.087 860.832, 1032.895 866.044, 1041.429 870.961, 1049.477 880.705, 1047.231 890.449, 1044.984 900.194, 1042.738 901.308, 1042.481 904.720, 1033.081 908.131, 1023.681 911.543, 1014.280 914.955, 1004.880 918.366, 995.480 919.748, 991.674 921.997, 981.930 924.245, 972.186 926.494, 962.443 928.743, 952.699 930.992, 942.955 933.241, 933.211 935.490, 923.467 937.739, 913.723 939.987, 903.979 942.236, 894.236 944.485, 884.492 946.734, 874.748 948.850, 865.578 951.493, 855.933 954.135, 846.289 956.777, 836.644 959.420, 827.000 961.273, 820.234 963.916, 810.590 966.558, 800.945 969.200, 791.300 971.842, 781.656 974.485, 772.011 977.127, 762.367 979.769, 752.722 982.412, 743.077 983.727, 738.278 " />
            <path fill="none" stroke-width="5.0" stroke-linecap="butt" stroke-opacity="1.0" stroke="rgb(255, 255, 255)" stroke-linejoin="round" d=" M 892.317, 653.030 893.660, 662.940 895.003, 672.849 896.346, 682.759 897.689, 692.668 899.032, 702.577 900.375, 712.487 901.719, 722.396 903.062, 732.306 904.089, 739.886 903.778, 749.881 903.466, 759.876 903.154, 769.871 902.843, 779.866 902.531, 789.861 902.219, 799.856 901.908, 809.852 901.596, 819.847 901.284, 829.842 900.973, 839.837 900.661, 849.832 900.349, 859.827 900.038, 869.822 899.726, 879.818 899.662, 881.867 897.516, 891.634 895.370, 901.401 893.224, 911.168 891.077, 920.935 888.931, 930.702 886.785, 940.469 884.639, 950.236 882.493, 960.003 880.347, 969.770 878.200, 979.537 876.054, 989.304 873.794, 999.588 873.227, 1009.572 872.660, 1019.556 872.093, 1029.540 871.526, 1039.524 870.961, 1049.477 " />
            <path fill="none" stroke-width="5.0" stroke-linecap="butt" stroke-opacity="1.0" stroke="rgb(255, 255, 255)" stroke-linejoin="round" d=" M 983.727, 738.278 984.846, 748.215 985.965, 758.152 987.085, 768.090 988.204, 778.027 989.324, 787.964 990.443, 797.901 991.563, 807.838 992.682, 817.775 993.801, 827.712 994.921, 837.650 996.040, 847.587 997.160, 857.524 997.871, 863.835 994.674, 873.310 991.477, 882.785 988.280, 892.261 987.215, 895.418 985.352, 900.940 982.155, 910.415 978.958, 919.890 975.762, 929.365 972.565, 938.841 969.368, 948.316 966.171, 957.791 964.147, 963.790 957.986, 971.666 951.825, 979.543 945.663, 987.419 939.502, 995.296 933.341, 1003.172 927.179, 1011.049 926.693, 1011.670 " />
            <path fill="none" stroke-width="5.0" stroke-linecap="butt" stroke-opacity="1.0" stroke="rgb(255, 255, 255)" stroke-linejoin="round" d=" M 1012.679, 909.283 1020.918, 903.617 1029.158, 897.950 1037.398, 892.284 1045.466, 886.736 1049.548, 877.607 1053.630, 868.478 1057.712, 859.349 1061.794, 850.220 1065.876, 841.091 1069.958, 831.963 1074.040, 822.834 1078.122, 813.705 1078.882, 812.004 1077.514, 802.098 1076.146, 792.192 1074.777, 782.286 1073.409, 772.380 1073.116, 770.257 1072.885, 768.591 1072.581, 766.388 1071.213, 756.482 1069.844, 746.576 1068.476, 736.670 1067.859, 732.204 1066.491, 722.298 1065.122, 712.392 1063.754, 702.486 1063.546, 700.982 " />
            <path fill="none" stroke-width="5.0" stroke-linecap="butt" stroke-opacity="1.0" stroke="rgb(255, 255, 255)" stroke-linejoin="round" d=" M 1045.466, 886.736 1053.020, 880.184 1060.575, 873.633 1062.316, 872.123 1066.794, 863.182 1071.272, 854.241 1075.750, 845.299 1080.228, 836.358 1084.706, 827.417 1089.184, 818.475 1093.662, 809.534 1098.141, 800.593 1101.814, 793.259 1102.521, 783.284 1103.228, 773.309 1103.935, 763.334 1104.643, 753.359 1105.376, 743.021 1105.899, 735.642 1106.606, 725.667 1107.313, 715.692 1108.020, 705.717 1108.728, 695.742 1109.435, 685.767 1110.142, 675.792 1110.849, 665.817 1111.151, 661.559 " />
            <path fill="none" stroke-width="5.0" stroke-linecap="butt" stroke-opacity="1.0" stroke="rgb(255, 255, 255)" stroke-linejoin="round" d=" M 1105.899, 735.642 1109.781, 730.601 1109.980, 720.603 1110.178, 710.605 1110.376, 700.607 1110.575, 690.608 1110.773, 680.610 1110.971, 670.612 1111.151, 661.559 " />
            <path fill="none" stroke-width="5.0" stroke-linecap="butt" stroke-opacity="1.0" stroke="rgb(255, 255, 255)" stroke-linejoin="round" d=" M 1032.063, 851.568 1030.031, 861.359 1029.734, 862.786 1027.796, 864.274 " />
        </g>
    </g>
</svg>
