<?xml version="1.0" encoding="utf-8"?>
<svg xmlns="http://www.w3.org/2000/svg" viewBox="61.6997 23.3 388.5997 605.6015" width="388.6px" height="605.601px" preserveAspectRatio="none"><g id="ViewLayer_LineSet" transform="matrix(0.630899965763092, 0, 0, 0.630899965763092, -349.5922293304237, -3.4400749719154646)"><g id="strokes"><path fill="none" stroke-width="5.0" stroke-linecap="butt" stroke-opacity="1.0" stroke="rgb(255, 255, 255)" stroke-linejoin="round" d=" M 1211.229, 884.962 1217.437, 886.105 1219.759, 886.132 1220.922, 885.941 1221.774, 885.118 1224.157, 882.583 1226.417, 877.880 1227.492, 875.025 1228.685, 870.939 1229.028, 868.790 1229.392, 866.504 1229.506, 862.390 1229.452, 859.059 1229.449, 858.855 1228.701, 854.076 1228.244, 853.132 1226.597, 850.343 1225.560, 849.744 1222.649, 849.221 "/><path fill="none" stroke-width="5.0" stroke-linecap="butt" stroke-opacity="1.0" stroke="rgb(255, 255, 255)" stroke-linejoin="round" d=" M 697.216, 849.220 694.301, 849.744 693.264, 850.343 691.617, 853.132 691.160, 854.076 690.412, 858.855 690.409, 859.059 690.355, 862.390 690.469, 866.504 690.834, 868.794 691.176, 870.939 692.369, 875.025 693.444, 877.880 695.704, 882.583 698.087, 885.118 698.939, 885.941 700.102, 886.132 702.423, 886.105 708.632, 884.962 "/><path fill="none" stroke-width="5.0" stroke-linecap="butt" stroke-opacity="1.0" stroke="rgb(255, 255, 255)" stroke-linejoin="round" d=" M 964.373, 999.901 974.359, 999.373 984.345, 998.844 994.331, 998.316 1003.629, 997.824 1013.555, 996.608 1023.481, 995.392 1033.407, 994.177 1043.333, 992.961 1053.259, 991.745 1054.015, 991.653 1063.861, 989.908 1073.708, 988.164 1083.555, 986.420 1093.401, 984.676 1103.248, 982.932 1110.790, 981.596 1119.322, 976.380 1127.854, 971.164 1136.386, 965.948 1144.918, 960.732 1153.450, 955.516 1161.604, 950.532 1169.205, 944.035 1172.825, 940.940 1180.530, 934.566 1183.951, 931.736 1191.818, 925.562 1199.685, 919.389 1207.552, 913.216 1209.114, 911.990 1214.771, 903.744 1220.428, 895.498 1222.331, 892.724 1226.816, 883.786 1231.132, 875.188 1230.772, 865.194 1230.481, 857.131 1230.439, 855.961 1230.079, 845.967 1229.719, 835.974 1229.359, 825.980 1229.096, 818.682 1229.267, 808.684 1229.438, 798.742 "/><path fill="none" stroke-width="5.0" stroke-linecap="butt" stroke-opacity="1.0" stroke="rgb(255, 255, 255)" stroke-linejoin="round" d=" M 1208.320, 833.397 1204.422, 837.634 1197.652, 844.993 1190.881, 852.353 1190.466, 852.804 1182.951, 859.401 1175.435, 865.998 1170.032, 870.741 1162.252, 877.024 1158.863, 879.761 1151.213, 886.201 1147.903, 888.989 1139.197, 893.909 1130.491, 898.829 1121.785, 903.750 1113.080, 908.670 1106.059, 912.638 1104.859, 912.794 "/><path fill="none" stroke-width="5.0" stroke-linecap="butt" stroke-opacity="1.0" stroke="rgb(255, 255, 255)" stroke-linejoin="round" d=" M 1091.988, 922.356 1101.891, 920.960 1111.820, 919.560 1120.508, 914.608 1129.195, 909.656 1137.883, 904.704 1146.571, 899.752 1155.259, 894.800 1156.369, 894.167 1163.991, 887.693 1167.706, 884.538 1175.443, 878.201 1178.865, 875.398 1186.312, 868.724 1193.760, 862.050 1199.838, 856.603 1206.537, 849.178 1207.584, 848.017 1214.282, 840.592 1218.555, 835.856 1223.786, 827.334 1229.096, 818.682 "/><path fill="none" stroke-width="5.0" stroke-linecap="butt" stroke-opacity="1.0" stroke="rgb(255, 255, 255)" stroke-linejoin="round" d=" M 1221.461, 794.747 1220.079, 804.651 1218.697, 814.555 1218.291, 817.468 "/><path fill="none" stroke-width="5.0" stroke-linecap="butt" stroke-opacity="1.0" stroke="rgb(255, 255, 255)" stroke-linejoin="round" d=" M 1210.214, 814.192 1213.003, 804.589 1215.791, 794.986 1218.580, 785.382 1218.680, 785.038 "/><path fill="none" stroke-width="5.0" stroke-linecap="butt" stroke-opacity="1.0" stroke="rgb(255, 255, 255)" stroke-linejoin="round" d=" M 1082.437, 963.706 1084.380, 965.850 1086.194, 967.852 1086.864, 968.371 1092.576, 970.532 1099.456, 970.478 1106.461, 968.221 1112.536, 964.103 1116.763, 958.744 1118.499, 952.953 1118.528, 952.094 1118.325, 951.040 1117.479, 946.628 1115.401, 942.272 "/><path fill="none" stroke-width="5.0" stroke-linecap="butt" stroke-opacity="1.0" stroke="rgb(255, 255, 255)" stroke-linejoin="round" d=" M 1165.205, 930.164 1166.341, 930.325 1170.125, 930.762 1174.699, 928.638 1175.368, 928.200 1179.786, 924.079 1183.630, 918.474 1186.322, 912.229 1187.455, 906.285 1187.474, 905.480 1186.840, 900.464 1184.465, 897.477 1183.881, 896.771 1183.731, 896.589 1178.571, 893.717 "/><path fill="none" stroke-width="5.0" stroke-linecap="butt" stroke-opacity="1.0" stroke="rgb(255, 255, 255)" stroke-linejoin="round" d=" M 995.227, 980.663 995.752, 981.164 1002.134, 983.617 1009.468, 983.898 1016.648, 981.969 1022.589, 978.119 1024.693, 975.244 1026.390, 972.927 1026.644, 972.195 1027.748, 966.319 1026.984, 962.083 "/><path fill="none" stroke-width="5.0" stroke-linecap="butt" stroke-opacity="1.0" stroke="rgb(255, 255, 255)" stroke-linejoin="round" d=" M 690.425, 798.746 690.595, 808.745 690.765, 818.682 690.405, 828.676 690.045, 838.669 689.686, 848.663 689.423, 855.951 689.381, 857.124 689.022, 867.117 688.731, 875.188 693.216, 884.125 697.531, 892.724 703.188, 900.970 708.845, 909.216 710.747, 911.990 718.614, 918.163 726.481, 924.337 734.348, 930.511 735.909, 931.736 743.614, 938.110 747.034, 940.940 754.635, 947.438 758.255, 950.532 766.787, 955.748 775.319, 960.964 783.851, 966.180 792.382, 971.396 800.914, 976.612 809.066, 981.596 818.913, 983.340 828.760, 985.084 838.607, 986.828 848.453, 988.573 858.300, 990.317 865.841, 991.653 875.767, 992.868 885.693, 994.084 895.619, 995.300 905.545, 996.515 915.471, 997.731 916.226, 997.824 926.212, 998.352 936.198, 998.881 946.184, 999.409 955.367, 999.895 "/><path fill="none" stroke-width="5.0" stroke-linecap="butt" stroke-opacity="1.0" stroke="rgb(255, 255, 255)" stroke-linejoin="round" d=" M 690.765, 818.682 695.995, 827.205 701.305, 835.856 708.003, 843.281 712.279, 848.021 718.978, 855.447 720.021, 856.603 727.467, 863.277 734.914, 869.951 740.992, 875.398 748.728, 881.735 752.151, 884.538 759.773, 891.011 763.487, 894.167 772.175, 899.119 780.863, 904.071 789.550, 909.023 798.238, 913.976 806.926, 918.928 808.035, 919.560 817.937, 920.956 827.740, 922.338 "/><path fill="none" stroke-width="5.0" stroke-linecap="butt" stroke-opacity="1.0" stroke="rgb(255, 255, 255)" stroke-linejoin="round" d=" M 814.873, 912.778 813.796, 912.638 805.091, 907.718 796.385, 902.797 787.679, 897.877 778.974, 892.956 771.954, 888.989 764.304, 882.548 760.994, 879.761 753.214, 873.478 749.826, 870.741 742.311, 864.144 734.795, 857.547 729.393, 852.804 722.623, 845.445 715.852, 838.085 715.443, 837.639 711.540, 833.397 "/><path fill="none" stroke-width="5.0" stroke-linecap="butt" stroke-opacity="1.0" stroke="rgb(255, 255, 255)" stroke-linejoin="round" d=" M 701.571, 817.468 700.189, 807.564 698.808, 797.660 698.401, 794.747 "/><path fill="none" stroke-width="5.0" stroke-linecap="butt" stroke-opacity="1.0" stroke="rgb(255, 255, 255)" stroke-linejoin="round" d=" M 701.183, 785.038 703.971, 794.641 706.759, 804.245 709.547, 813.848 709.646, 814.192 "/><path fill="none" stroke-width="5.0" stroke-linecap="butt" stroke-opacity="1.0" stroke="rgb(255, 255, 255)" stroke-linejoin="round" d=" M 804.455, 942.272 802.377, 946.628 801.530, 951.038 801.328, 952.094 801.356, 952.953 803.092, 958.744 807.319, 964.103 813.394, 968.221 820.400, 970.478 827.280, 970.532 832.992, 968.371 833.661, 967.852 835.476, 965.850 837.418, 963.706 "/><path fill="none" stroke-width="5.0" stroke-linecap="butt" stroke-opacity="1.0" stroke="rgb(255, 255, 255)" stroke-linejoin="round" d=" M 741.287, 893.717 736.127, 896.589 735.979, 896.769 735.393, 897.477 733.018, 900.464 732.385, 905.480 732.403, 906.285 733.537, 912.229 736.228, 918.474 740.072, 924.079 744.491, 928.200 745.159, 928.638 749.733, 930.762 753.517, 930.325 754.653, 930.164 "/><path fill="none" stroke-width="5.0" stroke-linecap="butt" stroke-opacity="1.0" stroke="rgb(255, 255, 255)" stroke-linejoin="round" d=" M 892.862, 962.134 892.107, 966.319 893.211, 972.195 893.465, 972.927 895.161, 975.244 897.266, 978.119 903.207, 981.969 910.387, 983.898 917.721, 983.617 924.103, 981.164 924.586, 980.703 "/><path fill="none" stroke-width="5.0" stroke-linecap="butt" stroke-opacity="1.0" stroke="rgb(255, 255, 255)" stroke-linejoin="round" d=" M 1232.437, 802.752 1232.761, 800.814 1233.386, 797.081 1234.668, 787.163 1235.402, 781.489 1235.700, 779.181 1236.364, 774.044 "/><path fill="none" stroke-width="5.0" stroke-linecap="butt" stroke-opacity="1.0" stroke="rgb(255, 255, 255)" stroke-linejoin="round" d=" M 1236.737, 817.233 1238.168, 817.233 1239.322, 816.841 1240.088, 815.895 1242.135, 810.313 1242.442, 808.682 1243.525, 799.338 1242.347, 790.081 1242.022, 788.396 1240.105, 783.328 "/><path fill="none" stroke-width="5.0" stroke-linecap="butt" stroke-opacity="1.0" stroke="rgb(255, 255, 255)" stroke-linejoin="round" d=" M 1234.350, 771.796 1234.462, 771.793 1236.206, 771.739 1237.289, 771.706 1237.814, 771.506 1238.156, 771.053 1238.309, 770.686 1238.461, 770.322 1239.243, 767.929 1239.382, 766.738 1239.574, 763.252 1239.086, 759.480 1238.856, 758.442 1237.877, 756.020 1237.523, 755.561 1237.145, 755.130 1236.605, 754.964 1235.619, 754.995 1235.056, 755.013 1233.667, 755.057 "/><path fill="none" stroke-width="5.0" stroke-linecap="butt" stroke-opacity="1.0" stroke="rgb(255, 255, 255)" stroke-linejoin="round" d=" M 1230.157, 720.739 1232.098, 720.674 1233.111, 720.640 1233.640, 720.438 1233.984, 719.981 1234.294, 719.287 1235.079, 716.866 1235.221, 715.692 1235.410, 712.134 1234.922, 708.395 1234.689, 707.328 1233.706, 704.910 1233.347, 704.407 1232.967, 703.975 1232.424, 703.809 1230.074, 703.890 1229.470, 703.910 "/><path fill="none" stroke-width="5.0" stroke-linecap="butt" stroke-opacity="1.0" stroke="rgb(255, 255, 255)" stroke-linejoin="round" d=" M 1226.885, 670.760 1226.930, 670.758 1227.461, 670.554 1227.807, 670.094 1228.123, 669.438 1228.910, 666.989 1229.056, 665.833 1229.239, 662.207 1228.764, 658.562 "/><path fill="none" stroke-width="5.0" stroke-linecap="butt" stroke-opacity="1.0" stroke="rgb(255, 255, 255)" stroke-linejoin="round" d=" M 683.499, 774.044 684.163, 779.183 684.461, 781.489 685.743, 791.407 686.476, 797.081 687.104, 800.829 687.425, 802.752 "/><path fill="none" stroke-width="5.0" stroke-linecap="butt" stroke-opacity="1.0" stroke="rgb(255, 255, 255)" stroke-linejoin="round" d=" M 681.555, 770.689 679.864, 780.545 679.622, 781.956 679.759, 783.331 680.748, 793.282 681.736, 803.233 682.725, 813.184 683.128, 817.233 684.116, 827.184 685.070, 836.779 687.143, 846.561 689.216, 856.344 689.381, 857.124 "/><path fill="none" stroke-width="5.0" stroke-linecap="butt" stroke-opacity="1.0" stroke="rgb(255, 255, 255)" stroke-linejoin="round" d=" M 679.759, 783.331 677.843, 788.396 677.518, 790.081 676.340, 799.338 677.423, 808.682 677.730, 810.313 679.778, 815.895 680.543, 816.841 681.697, 817.233 683.128, 817.233 "/><path fill="none" stroke-width="5.0" stroke-linecap="butt" stroke-opacity="1.0" stroke="rgb(255, 255, 255)" stroke-linejoin="round" d=" M 686.196, 755.057 684.807, 755.013 684.247, 754.995 683.258, 754.964 682.717, 755.130 682.339, 755.561 681.986, 756.020 681.007, 758.442 680.777, 759.480 680.288, 763.252 680.480, 766.738 680.619, 767.929 681.401, 770.322 681.555, 770.689 681.706, 771.053 682.048, 771.506 682.574, 771.706 683.658, 771.739 685.402, 771.793 685.512, 771.796 "/><path fill="none" stroke-width="5.0" stroke-linecap="butt" stroke-opacity="1.0" stroke="rgb(255, 255, 255)" stroke-linejoin="round" d=" M 690.392, 703.910 689.788, 703.890 687.438, 703.809 686.894, 703.975 686.514, 704.407 686.156, 704.910 685.173, 707.328 684.939, 708.395 684.452, 712.134 684.641, 715.692 684.783, 716.866 685.568, 719.287 685.878, 719.981 686.222, 720.438 686.750, 720.640 687.765, 720.674 689.705, 720.739 "/><path fill="none" stroke-width="5.0" stroke-linecap="butt" stroke-opacity="1.0" stroke="rgb(255, 255, 255)" stroke-linejoin="round" d=" M 691.057, 658.866 690.622, 662.207 690.806, 665.833 690.951, 666.989 691.738, 669.438 692.054, 670.094 692.400, 670.554 692.876, 670.737 "/><path fill="none" stroke-width="5.0" stroke-linecap="butt" stroke-opacity="1.0" stroke="rgb(255, 255, 255)" stroke-linejoin="round" d=" M 1222.301, 701.044 1224.078, 710.884 1225.856, 720.725 1227.633, 730.566 1229.410, 740.407 1229.653, 741.753 1230.961, 748.997 1231.099, 751.723 1231.602, 761.710 1232.106, 771.698 1232.600, 781.489 1233.103, 791.476 1233.339, 796.156 1233.386, 797.081 "/><path fill="none" stroke-width="5.0" stroke-linecap="butt" stroke-opacity="1.0" stroke="rgb(255, 255, 255)" stroke-linejoin="round" d=" M 1236.053, 781.288 1236.364, 774.044 1236.206, 771.739 "/><path fill="none" stroke-width="5.0" stroke-linecap="butt" stroke-opacity="1.0" stroke="rgb(255, 255, 255)" stroke-linejoin="round" d=" M 1238.309, 770.686 1239.999, 780.542 1240.242, 781.956 1240.041, 783.156 1238.390, 793.019 1236.739, 802.882 1236.694, 803.147 "/><path fill="none" stroke-width="5.0" stroke-linecap="butt" stroke-opacity="1.0" stroke="rgb(255, 255, 255)" stroke-linejoin="round" d=" M 1236.053, 781.288 1236.019, 781.489 1234.358, 791.350 1232.761, 800.826 1232.437, 802.752 1232.771, 802.783 1236.694, 803.147 1235.518, 813.078 1235.026, 817.233 1233.850, 827.164 1232.674, 837.094 1231.498, 847.025 1230.439, 855.961 "/><path fill="none" stroke-width="5.0" stroke-linecap="butt" stroke-opacity="1.0" stroke="rgb(255, 255, 255)" stroke-linejoin="round" d=" M 1230.481, 857.131 1232.555, 847.348 1234.629, 837.566 1234.796, 836.779 1235.784, 826.828 1236.737, 817.233 1237.726, 807.282 1238.714, 797.331 1239.703, 787.380 1240.105, 783.328 1240.242, 781.956 "/><path fill="none" stroke-width="5.0" stroke-linecap="butt" stroke-opacity="1.0" stroke="rgb(255, 255, 255)" stroke-linejoin="round" d=" M 1235.056, 755.013 1234.678, 749.510 1233.993, 739.533 1233.490, 732.222 1232.293, 722.294 1232.098, 720.674 "/><path fill="none" stroke-width="5.0" stroke-linecap="butt" stroke-opacity="1.0" stroke="rgb(255, 255, 255)" stroke-linejoin="round" d=" M 1241.979, 368.417 1242.141, 366.502 1242.792, 358.803 1243.635, 348.839 1243.846, 346.345 1242.806, 343.954 1241.450, 340.836 1240.021, 337.549 1236.032, 328.379 1232.044, 319.208 1228.056, 310.038 1227.089, 307.815 1223.622, 298.435 1220.155, 289.055 1216.689, 279.675 1213.222, 270.295 1209.755, 260.916 1208.515, 257.560 1206.484, 251.806 1202.208, 242.767 1197.932, 233.727 1193.655, 224.688 1190.963, 218.997 1184.153, 211.674 1177.343, 204.352 1170.532, 197.029 1163.722, 189.707 1157.899, 183.446 1152.888, 179.053 1145.369, 172.461 1137.849, 165.868 1130.330, 159.276 1122.810, 152.684 1120.877, 150.989 "/><path fill="none" stroke-width="5.0" stroke-linecap="butt" stroke-opacity="1.0" stroke="rgb(255, 255, 255)" stroke-linejoin="round" d=" M 1152.888, 179.053 1146.191, 171.626 1139.495, 164.200 1132.798, 156.773 1126.101, 149.347 1124.178, 147.214 1115.525, 142.200 1106.873, 137.186 1098.221, 132.172 1089.569, 127.159 1080.916, 122.145 1072.264, 117.131 1070.897, 116.339 1061.498, 112.922 1052.100, 109.506 1042.701, 106.090 1033.303, 102.674 1023.905, 99.257 1020.185, 97.905 1010.492, 95.445 1006.962, 94.549 997.006, 95.486 989.196, 96.220 "/><path fill="none" stroke-width="5.0" stroke-linecap="butt" stroke-opacity="1.0" stroke="rgb(255, 255, 255)" stroke-linejoin="round" d=" M 959.928, 42.384 959.927, 43.867 959.926, 53.867 959.926, 63.867 959.926, 65.621 959.925, 75.621 959.925, 85.621 959.925, 93.387 959.924, 103.387 959.924, 113.387 959.924, 117.802 959.924, 127.802 959.924, 137.802 959.924, 139.422 959.924, 149.422 959.924, 159.422 959.923, 165.338 959.923, 165.464 959.923, 165.471 "/><path fill="none" stroke-width="5.0" stroke-linecap="butt" stroke-opacity="1.0" stroke="rgb(255, 255, 255)" stroke-linejoin="round" d=" M 969.657, 181.317 970.768, 171.379 971.878, 161.441 972.988, 151.503 973.294, 148.769 974.385, 138.829 975.478, 128.889 976.570, 118.949 976.792, 116.927 977.729, 108.393 980.807, 98.879 983.920, 89.256 987.774, 81.964 988.195, 81.168 990.624, 76.573 989.351, 75.373 980.369, 70.979 971.386, 66.584 967.992, 64.923 "/><path fill="none" stroke-width="5.0" stroke-linecap="butt" stroke-opacity="1.0" stroke="rgb(255, 255, 255)" stroke-linejoin="round" d=" M 989.096, 97.398 989.196, 96.220 989.396, 93.872 990.104, 83.897 990.624, 76.573 "/><path fill="none" stroke-width="5.0" stroke-linecap="butt" stroke-opacity="1.0" stroke="rgb(255, 255, 255)" stroke-linejoin="round" d=" M 968.260, 65.673 967.992, 64.923 964.623, 55.508 961.255, 46.092 959.928, 42.384 956.559, 51.799 953.189, 61.214 951.862, 64.924 951.594, 65.673 "/><path fill="none" stroke-width="5.0" stroke-linecap="butt" stroke-opacity="1.0" stroke="rgb(255, 255, 255)" stroke-linejoin="round" d=" M 970.384, 182.501 971.332, 172.546 972.280, 162.591 972.848, 156.626 974.015, 146.695 975.182, 136.763 976.349, 126.831 977.201, 119.574 978.359, 116.846 982.268, 107.641 983.312, 105.181 986.449, 100.959 986.815, 100.468 989.096, 97.398 "/><path fill="none" stroke-width="5.0" stroke-linecap="butt" stroke-opacity="1.0" stroke="rgb(255, 255, 255)" stroke-linejoin="round" d=" M 1212.512, 728.753 1213.038, 731.643 1214.830, 741.482 1215.446, 744.866 1216.153, 748.752 1216.655, 758.739 1217.064, 766.886 1217.566, 776.873 1218.068, 786.860 1218.570, 796.848 1218.601, 797.479 "/><path fill="none" stroke-width="5.0" stroke-linecap="butt" stroke-opacity="1.0" stroke="rgb(255, 255, 255)" stroke-linejoin="round" d=" M 1233.965, 771.313 1234.350, 771.796 "/><path fill="none" stroke-width="5.0" stroke-linecap="butt" stroke-opacity="1.0" stroke="rgb(255, 255, 255)" stroke-linejoin="round" d=" M 1229.470, 703.910 1229.130, 704.647 1228.894, 706.555 1228.798, 709.346 1228.857, 712.593 1229.062, 715.800 "/><path fill="none" stroke-width="5.0" stroke-linecap="butt" stroke-opacity="1.0" stroke="rgb(255, 255, 255)" stroke-linejoin="round" d=" M 686.476, 797.081 686.523, 796.152 687.026, 786.165 687.262, 781.489 687.765, 771.502 688.269, 761.514 688.761, 751.759 688.900, 748.997 690.207, 741.758 691.984, 731.917 693.761, 722.076 695.538, 712.235 697.316, 702.394 697.527, 701.226 "/><path fill="none" stroke-width="5.0" stroke-linecap="butt" stroke-opacity="1.0" stroke="rgb(255, 255, 255)" stroke-linejoin="round" d=" M 687.765, 720.674 686.567, 730.602 686.372, 732.222 685.687, 742.199 685.183, 749.538 684.807, 755.013 "/><path fill="none" stroke-width="5.0" stroke-linecap="butt" stroke-opacity="1.0" stroke="rgb(255, 255, 255)" stroke-linejoin="round" d=" M 683.658, 771.739 683.499, 774.044 683.811, 781.288 "/><path fill="none" stroke-width="5.0" stroke-linecap="butt" stroke-opacity="1.0" stroke="rgb(255, 255, 255)" stroke-linejoin="round" d=" M 683.168, 803.147 681.517, 793.284 679.867, 783.421 679.824, 783.160 679.622, 781.956 "/><path fill="none" stroke-width="5.0" stroke-linecap="butt" stroke-opacity="1.0" stroke="rgb(255, 255, 255)" stroke-linejoin="round" d=" M 683.811, 781.288 683.845, 781.489 685.505, 791.350 687.104, 800.840 687.425, 802.752 687.094, 802.783 683.168, 803.147 684.344, 813.078 684.836, 817.233 686.013, 827.164 687.190, 837.094 688.366, 847.025 689.423, 855.951 "/><path fill="none" stroke-width="5.0" stroke-linecap="butt" stroke-opacity="1.0" stroke="rgb(255, 255, 255)" stroke-linejoin="round" d=" M 681.043, 347.816 681.082, 357.816 681.121, 367.816 681.123, 368.159 "/><path fill="none" stroke-width="5.0" stroke-linecap="butt" stroke-opacity="1.0" stroke="rgb(255, 255, 255)" stroke-linejoin="round" d=" M 798.978, 150.989 791.459, 157.581 783.939, 164.173 776.420, 170.766 768.900, 177.358 766.975, 179.045 761.956, 183.446 755.146, 190.768 748.336, 198.091 741.525, 205.413 734.715, 212.736 728.892, 218.997 724.615, 228.036 720.339, 237.076 716.063, 246.115 713.371, 251.806 711.338, 257.560 707.871, 266.940 704.405, 276.320 700.938, 285.700 697.471, 295.080 694.004, 304.459 692.764, 307.815 688.776, 316.985 684.788, 326.155 680.800, 335.326 679.780, 337.671 678.403, 340.836 676.973, 344.123 676.008, 346.345 676.850, 356.309 676.994, 358.013 677.713, 366.519 677.873, 368.414 "/><path fill="none" stroke-width="5.0" stroke-linecap="butt" stroke-opacity="1.0" stroke="rgb(255, 255, 255)" stroke-linejoin="round" d=" M 930.658, 96.220 920.702, 95.284 912.895, 94.549 903.202, 97.009 899.670, 97.905 890.272, 101.321 880.873, 104.738 871.475, 108.154 862.077, 111.570 852.678, 114.987 848.960, 116.339 840.308, 121.352 831.655, 126.366 823.003, 131.380 814.351, 136.394 805.699, 141.408 797.046, 146.422 795.679, 147.214 788.982, 154.640 782.285, 162.067 775.589, 169.493 768.892, 176.920 766.975, 179.045 "/><path fill="none" stroke-width="5.0" stroke-linecap="butt" stroke-opacity="1.0" stroke="rgb(255, 255, 255)" stroke-linejoin="round" d=" M 951.862, 64.924 942.879, 69.319 933.897, 73.714 930.505, 75.373 929.230, 76.573 931.663, 81.178 932.085, 81.975 935.932, 89.256 939.009, 98.771 942.121, 108.393 943.058, 116.927 944.149, 126.867 945.241, 136.807 946.332, 146.747 946.554, 148.769 947.664, 158.707 948.774, 168.646 949.884, 178.584 950.175, 181.188 "/><path fill="none" stroke-width="5.0" stroke-linecap="butt" stroke-opacity="1.0" stroke="rgb(255, 255, 255)" stroke-linejoin="round" d=" M 929.230, 76.573 929.938, 86.548 930.458, 93.872 930.658, 96.220 930.758, 97.398 "/><path fill="none" stroke-width="5.0" stroke-linecap="butt" stroke-opacity="1.0" stroke="rgb(255, 255, 255)" stroke-linejoin="round" d=" M 930.758, 97.398 933.045, 100.476 933.409, 100.966 936.540, 105.181 940.447, 114.386 941.491, 116.845 942.649, 119.574 943.815, 129.505 944.982, 139.437 946.148, 149.369 947.000, 156.626 947.948, 166.581 948.895, 176.536 949.450, 182.368 "/><path fill="none" stroke-width="5.0" stroke-linecap="butt" stroke-opacity="1.0" stroke="rgb(255, 255, 255)" stroke-linejoin="round" d=" M 701.261, 797.479 701.762, 787.492 702.264, 777.505 702.765, 767.517 702.798, 766.876 703.299, 756.889 703.708, 748.752 704.412, 744.883 706.203, 735.044 706.822, 731.648 707.317, 728.929 "/><path fill="none" stroke-width="5.0" stroke-linecap="butt" stroke-opacity="1.0" stroke="rgb(255, 255, 255)" stroke-linejoin="round" d=" M 685.512, 771.796 685.898, 771.313 "/><path fill="none" stroke-width="5.0" stroke-linecap="butt" stroke-opacity="1.0" stroke="rgb(255, 255, 255)" stroke-linejoin="round" d=" M 690.800, 715.800 691.004, 712.593 691.063, 709.346 690.967, 706.555 690.731, 704.647 690.392, 703.910 "/><path fill="none" stroke-width="5.0" stroke-linecap="butt" stroke-opacity="1.0" stroke="rgb(255, 255, 255)" stroke-linejoin="round" d=" M 1240.226, 368.368 1241.979, 368.417 1242.370, 368.427 1242.934, 368.443 1246.630, 368.546 1249.844, 368.635 1251.953, 368.694 1253.548, 368.738 1254.088, 359.277 1254.089, 359.256 1251.848, 349.510 1251.133, 346.400 1249.887, 340.430 1248.089, 330.593 1247.754, 328.761 1245.961, 324.444 1244.058, 324.482 1242.074, 326.619 1240.228, 336.447 1240.021, 337.549 "/><path fill="none" stroke-width="5.0" stroke-linecap="butt" stroke-opacity="1.0" stroke="rgb(255, 255, 255)" stroke-linejoin="round" d=" M 1168.391, 462.726 1175.969, 466.330 1183.029, 473.412 1184.176, 474.562 1183.254, 484.520 1182.331, 494.477 1182.291, 494.906 1175.701, 502.427 1169.450, 509.561 1160.306, 513.609 1151.162, 517.657 1142.018, 521.705 1132.874, 525.754 1127.911, 527.951 1118.491, 531.305 1109.070, 534.660 1099.650, 538.015 1090.229, 541.369 1080.809, 544.724 1071.388, 548.078 1069.779, 548.651 1060.183, 551.465 1050.587, 554.279 1040.991, 557.092 1031.395, 559.906 1025.261, 561.705 1015.315, 562.736 1005.368, 563.767 996.122, 564.726 995.887, 564.750 995.841, 564.755 992.214, 565.131 990.027, 574.889 987.840, 584.647 985.653, 594.405 983.636, 603.403 979.531, 612.522 975.426, 621.641 973.571, 625.761 969.618, 634.947 965.665, 644.132 961.712, 653.318 961.070, 654.810 959.872, 655.963 958.675, 654.810 954.722, 645.625 950.769, 636.439 946.816, 627.254 946.173, 625.761 942.068, 616.643 937.964, 607.524 936.108, 603.403 933.921, 593.645 931.733, 583.888 929.546, 574.130 927.528, 565.131 924.029, 564.768 923.983, 564.763 923.749, 564.739 913.802, 563.708 903.856, 562.676 894.483, 561.705 884.887, 558.891 875.291, 556.077 865.695, 553.263 856.099, 550.449 849.967, 548.651 840.546, 545.297 831.126, 541.942 821.705, 538.587 812.285, 535.232 802.864, 531.878 793.444, 528.523 791.837, 527.951 782.693, 523.902 773.549, 519.854 764.405, 515.806 755.261, 511.757 750.300, 509.561 743.711, 502.039 737.461, 494.906 736.538, 484.949 735.615, 474.991 735.575, 474.562 742.635, 467.480 743.782, 466.330 751.359, 462.726 "/><path fill="none" stroke-width="5.0" stroke-linecap="butt" stroke-opacity="1.0" stroke="rgb(255, 255, 255)" stroke-linejoin="round" d=" M 679.780, 337.671 677.932, 327.843 677.702, 326.619 675.716, 324.482 673.811, 324.444 672.016, 328.761 670.218, 338.598 669.883, 340.430 668.636, 346.400 666.393, 356.145 665.676, 359.256 665.678, 359.277 666.214, 368.738 667.812, 368.694 669.927, 368.635 673.144, 368.546 676.844, 368.443 677.487, 368.425 677.873, 368.414 679.532, 368.368 "/><path fill="none" stroke-width="5.0" stroke-linecap="butt" stroke-opacity="1.0" stroke="rgb(255, 255, 255)" stroke-linejoin="round" d=" M 1257.851, 359.637 1255.585, 349.897 1254.855, 346.760 1253.591, 340.781 1251.718, 330.958 1251.299, 328.761 1249.484, 324.444 1245.961, 324.444 "/><path fill="none" stroke-width="5.0" stroke-linecap="butt" stroke-opacity="1.0" stroke="rgb(255, 255, 255)" stroke-linejoin="round" d=" M 1247.194, 500.238 1247.359, 497.673 1247.998, 487.693 1248.637, 477.714 1249.276, 467.734 1249.502, 464.196 1250.660, 454.263 1251.817, 444.331 1252.751, 436.315 1254.142, 426.412 1255.519, 416.603 1255.961, 413.455 1256.575, 404.656 1256.837, 400.863 1257.208, 395.512 1257.400, 385.514 1257.587, 375.825 1257.593, 375.435 1257.594, 375.376 1257.757, 365.378 1257.848, 359.844 1257.851, 359.637 1257.841, 359.841 1257.360, 369.137 1254.047, 378.572 1253.738, 379.451 1252.837, 382.016 "/><path fill="none" stroke-width="5.0" stroke-linecap="butt" stroke-opacity="1.0" stroke="rgb(255, 255, 255)" stroke-linejoin="round" d=" M 672.408, 497.707 672.582, 507.706 672.756, 517.704 672.930, 527.703 672.987, 531.025 673.606, 541.006 674.225, 550.987 674.273, 551.748 675.279, 561.697 675.727, 566.131 676.913, 576.060 677.145, 578.007 678.659, 587.892 680.173, 597.776 681.687, 607.661 682.695, 614.245 684.526, 624.077 686.356, 633.908 688.186, 643.739 688.511, 645.484 690.380, 655.308 691.057, 658.866 691.924, 663.417 692.876, 670.737 693.348, 674.369 694.638, 684.286 695.928, 694.202 696.432, 698.082 697.527, 701.226 700.814, 710.670 703.107, 717.258 704.590, 721.519 707.225, 728.681 707.317, 728.929 707.992, 730.766 707.997, 730.777 710.334, 737.129 712.204, 742.211 712.445, 742.937 712.490, 743.072 712.738, 743.819 715.891, 753.309 719.043, 762.799 719.442, 764.000 722.595, 773.491 722.734, 773.911 725.887, 783.401 729.039, 792.891 730.513, 797.329 731.857, 801.374 736.184, 810.389 740.512, 819.404 744.839, 828.419 749.166, 837.434 753.494, 846.450 755.327, 850.269 761.813, 857.881 768.298, 865.493 774.784, 873.104 781.269, 880.716 782.195, 881.803 788.681, 889.415 795.166, 897.026 797.742, 900.050 805.769, 906.014 813.796, 911.977 814.873, 912.778 822.900, 918.742 827.740, 922.338 835.767, 928.302 843.794, 934.266 851.852, 940.253 860.674, 944.960 869.497, 949.668 878.320, 954.375 887.143, 959.082 892.862, 962.134 892.977, 962.195 901.800, 966.903 906.334, 969.322 914.819, 974.613 919.401, 977.469 920.318, 978.041 924.586, 980.703 933.072, 985.994 941.557, 991.285 950.043, 996.576 955.367, 999.895 958.196, 1001.659 959.875, 1002.285 961.554, 1001.659 964.373, 999.901 972.859, 994.610 981.344, 989.319 989.830, 984.028 995.227, 980.663 999.473, 978.016 1000.331, 977.481 1008.816, 972.190 1013.416, 969.322 1022.239, 964.614 1026.889, 962.133 1026.984, 962.083 1035.806, 957.376 1044.629, 952.669 1053.452, 947.961 1062.275, 943.254 1067.900, 940.253 1075.927, 934.289 1083.954, 928.325 1091.988, 922.356 1100.016, 916.392 1104.859, 912.794 1112.885, 906.830 1120.912, 900.867 1122.012, 900.050 1128.498, 892.438 1134.984, 884.826 1137.535, 881.833 1144.020, 874.221 1150.506, 866.610 1156.992, 858.998 1163.478, 851.387 1164.430, 850.269 1168.758, 841.254 1173.086, 832.239 1177.414, 823.224 1181.741, 814.209 1186.069, 805.194 1187.904, 801.374 1189.270, 797.262 1192.422, 787.772 1195.575, 778.282 1197.050, 773.845 1200.203, 764.355 1200.359, 763.883 1203.512, 754.393 1206.665, 744.903 1207.064, 743.704 1207.345, 742.857 1207.391, 742.718 1207.560, 742.211 1209.453, 737.067 1211.789, 730.717 1211.828, 730.612 1212.512, 728.753 1212.561, 728.619 1215.174, 721.519 1216.734, 717.037 1220.021, 707.593 1222.301, 701.044 1223.332, 698.082 1224.622, 688.166 1225.911, 678.249 1226.467, 673.974 1226.885, 670.760 1227.840, 663.417 1228.764, 658.562 1230.634, 648.739 1231.253, 645.484 1233.083, 635.653 1234.913, 625.822 1236.743, 615.991 1237.068, 614.245 1238.582, 604.361 1240.096, 594.476 1241.611, 584.591 1242.619, 578.007 1243.805, 568.078 1244.038, 566.131 1245.044, 556.182 1245.492, 551.748 1246.112, 541.767 1246.731, 531.787 1246.778, 531.025 1246.952, 521.026 1247.126, 511.028 1247.300, 501.029 1247.359, 497.673 "/><path fill="none" stroke-width="5.0" stroke-linecap="butt" stroke-opacity="1.0" stroke="rgb(255, 255, 255)" stroke-linejoin="round" d=" M 1257.360, 369.137 1255.733, 369.092 1253.925, 369.042 1253.446, 369.029 1251.886, 368.986 1249.859, 368.930 1243.085, 368.744 1242.966, 368.728 1242.396, 368.653 1241.964, 368.596 1240.226, 368.368 1239.478, 368.269 1238.728, 368.171 1238.448, 368.134 1233.812, 367.524 1232.359, 367.368 1227.577, 366.854 1221.615, 366.213 1211.986, 363.516 1202.356, 360.820 1195.770, 358.975 1186.051, 356.625 1176.331, 354.274 1168.651, 352.417 1159.319, 348.821 1149.988, 345.226 1141.640, 342.009 1132.072, 339.101 1122.504, 336.192 1118.057, 334.841 1108.938, 330.738 1099.818, 326.635 1090.698, 322.532 1081.750, 318.506 1074.086, 312.082 1066.422, 305.658 1058.758, 299.235 1051.094, 292.811 1043.538, 286.478 1037.312, 278.653 1031.085, 270.828 1024.858, 263.003 1018.632, 255.178 1012.405, 247.353 1009.180, 243.300 1009.072, 243.165 1009.046, 243.132 1002.771, 235.246 997.538, 226.724 992.306, 218.202 988.133, 211.407 983.810, 204.366 983.698, 204.184 978.466, 195.662 973.233, 187.141 970.384, 182.501 969.657, 181.317 964.425, 172.795 960.776, 166.854 959.933, 165.480 "/><path fill="none" stroke-width="5.0" stroke-linecap="butt" stroke-opacity="1.0" stroke="rgb(255, 255, 255)" stroke-linejoin="round" d=" M 1186.179, 495.497 1179.596, 503.025 1173.342, 510.176 1164.199, 514.228 1155.057, 518.281 1145.915, 522.333 1136.773, 526.385 1131.781, 528.598 1122.361, 531.955 1112.942, 535.312 1103.522, 538.670 1094.103, 542.027 1084.683, 545.385 1075.263, 548.742 1073.603, 549.334 1064.008, 552.150 1054.413, 554.966 1044.817, 557.782 1035.222, 560.599 1029.049, 562.411 1019.102, 563.444 1009.156, 564.477 999.209, 565.510 996.101, 565.832 995.974, 565.846 "/><path fill="none" stroke-width="5.0" stroke-linecap="butt" stroke-opacity="1.0" stroke="rgb(255, 255, 255)" stroke-linejoin="round" d=" M 749.721, 462.201 751.359, 462.726 760.882, 465.777 770.405, 468.829 779.928, 471.880 789.451, 474.932 797.527, 477.520 807.270, 479.775 817.012, 482.030 826.755, 484.285 836.497, 486.540 839.821, 487.309 849.735, 488.618 859.649, 489.927 861.724, 490.201 871.441, 492.563 881.158, 494.925 890.875, 497.286 899.293, 499.333 908.505, 503.223 917.717, 507.114 922.678, 509.209 922.960, 509.329 923.006, 509.348 925.927, 510.582 929.825, 519.791 933.723, 528.999 937.622, 538.208 941.520, 547.417 944.290, 553.961 946.215, 563.774 948.140, 573.587 949.353, 579.769 954.404, 588.285 955.335, 588.413 958.924, 588.907 959.871, 587.972 959.936, 588.078 960.540, 589.060 964.529, 588.416 965.339, 588.285 970.391, 579.769 972.315, 569.956 974.240, 560.143 975.453, 553.961 979.351, 544.752 983.250, 535.543 987.148, 526.334 991.046, 517.126 993.816, 510.582 996.864, 509.294 996.911, 509.275 997.193, 509.156 1006.405, 505.265 1015.617, 501.374 1020.451, 499.333 1030.168, 496.971 1039.885, 494.609 1049.602, 492.247 1058.021, 490.201 1067.935, 488.892 1077.849, 487.583 1079.924, 487.309 1089.667, 485.054 1099.409, 482.799 1109.152, 480.544 1118.894, 478.289 1122.220, 477.520 1131.743, 474.468 1141.266, 471.417 1150.789, 468.366 1160.312, 465.314 1168.391, 462.726 1170.028, 462.201 "/><path fill="none" stroke-width="5.0" stroke-linecap="butt" stroke-opacity="1.0" stroke="rgb(255, 255, 255)" stroke-linejoin="round" d=" M 992.214, 565.131 995.822, 565.817 995.974, 565.846 995.807, 566.587 993.615, 576.343 991.422, 586.100 989.230, 595.857 987.362, 604.169 983.255, 613.286 979.148, 622.404 977.278, 626.558 972.485, 635.334 967.693, 644.111 962.900, 652.888 961.321, 655.781 959.872, 657.003 "/><path fill="none" stroke-width="5.0" stroke-linecap="butt" stroke-opacity="1.0" stroke="rgb(255, 255, 255)" stroke-linejoin="round" d=" M 1170.028, 462.201 1179.056, 466.502 1179.858, 466.883 1186.917, 473.967 1188.073, 475.126 1187.147, 485.083 1186.221, 495.041 1186.179, 495.497 1182.291, 494.906 "/><path fill="none" stroke-width="5.0" stroke-linecap="butt" stroke-opacity="1.0" stroke="rgb(255, 255, 255)" stroke-linejoin="round" d=" M 1255.519, 416.603 1262.327, 413.971 1263.079, 412.851 1266.268, 406.136 1266.831, 402.577 1267.194, 399.340 1267.585, 393.570 1267.785, 388.629 1267.823, 385.536 1267.858, 382.447 1267.733, 376.009 1267.346, 371.427 1266.736, 369.315 1263.749, 362.217 1257.848, 359.844 "/><path fill="none" stroke-width="5.0" stroke-linecap="butt" stroke-opacity="1.0" stroke="rgb(255, 255, 255)" stroke-linejoin="round" d=" M 1254.089, 359.256 1254.085, 359.277 1251.953, 368.694 "/><path fill="none" stroke-width="5.0" stroke-linecap="butt" stroke-opacity="1.0" stroke="rgb(255, 255, 255)" stroke-linejoin="round" d=" M 673.811, 324.444 670.288, 324.444 668.471, 328.761 666.597, 338.584 666.178, 340.781 664.913, 346.760 662.645, 356.499 661.914, 359.637 "/><path fill="none" stroke-width="5.0" stroke-linecap="butt" stroke-opacity="1.0" stroke="rgb(255, 255, 255)" stroke-linejoin="round" d=" M 666.925, 382.016 666.028, 379.459 662.714, 370.024 662.402, 369.137 661.925, 359.843 661.914, 359.637 661.918, 359.846 662.081, 369.845 662.171, 375.376 662.173, 375.460 662.179, 375.825 662.370, 385.824 662.556, 395.512 662.929, 400.893 663.190, 404.656 663.804, 413.455 664.245, 416.599 665.636, 426.502 667.014, 436.315 668.171, 446.248 669.328, 456.181 670.262, 464.196 670.901, 474.176 671.540, 484.155 672.179, 494.135 672.408, 497.707 672.570, 500.238 "/><path fill="none" stroke-width="5.0" stroke-linecap="butt" stroke-opacity="1.0" stroke="rgb(255, 255, 255)" stroke-linejoin="round" d=" M 959.877, 165.388 958.981, 166.847 953.748, 175.369 950.175, 181.188 949.450, 182.368 944.218, 190.889 938.985, 199.411 936.170, 203.995 936.054, 204.184 931.592, 211.451 926.359, 219.972 921.126, 228.494 916.980, 235.246 910.798, 243.015 910.772, 243.047 910.665, 243.182 904.438, 251.007 898.211, 258.832 891.984, 266.657 885.758, 274.481 879.531, 282.306 876.211, 286.478 868.547, 292.901 860.883, 299.325 853.220, 305.749 845.556, 312.173 838.000, 318.506 828.880, 322.609 819.761, 326.712 810.641, 330.815 801.694, 334.841 792.126, 337.749 782.558, 340.657 778.112, 342.009 768.781, 345.604 759.450, 349.200 751.102, 352.417 741.382, 354.767 731.663, 357.118 723.984, 358.975 714.354, 361.672 704.725, 364.369 698.141, 366.213 692.276, 366.844 687.499, 367.357 685.946, 367.524 681.404, 368.122 681.123, 368.159 680.300, 368.267 679.532, 368.368 677.888, 368.584 677.462, 368.640 676.812, 368.726 676.674, 368.744 669.912, 368.930 667.878, 368.986 666.317, 369.029 665.841, 369.042 664.031, 369.092 662.402, 369.137 "/><path fill="none" stroke-width="5.0" stroke-linecap="butt" stroke-opacity="1.0" stroke="rgb(255, 255, 255)" stroke-linejoin="round" d=" M 923.768, 565.846 913.822, 564.813 903.875, 563.780 893.929, 562.747 890.695, 562.411 881.100, 559.594 871.505, 556.778 861.909, 553.962 852.314, 551.145 846.142, 549.334 836.723, 545.976 827.303, 542.619 817.884, 539.261 808.464, 535.904 799.045, 532.546 789.625, 529.189 787.967, 528.598 778.825, 524.545 769.683, 520.493 760.541, 516.441 751.399, 512.388 746.409, 510.176 739.826, 502.648 733.573, 495.497 "/><path fill="none" stroke-width="5.0" stroke-linecap="butt" stroke-opacity="1.0" stroke="rgb(255, 255, 255)" stroke-linejoin="round" d=" M 959.872, 657.003 958.423, 655.781 953.631, 647.004 948.838, 638.227 944.046, 629.450 942.466, 626.558 938.360, 617.440 934.253, 608.322 932.382, 604.169 930.189, 594.412 927.996, 584.655 925.803, 574.899 924.074, 567.207 923.771, 565.856 923.768, 565.846 923.770, 565.845 924.048, 565.792 927.528, 565.131 "/><path fill="none" stroke-width="5.0" stroke-linecap="butt" stroke-opacity="1.0" stroke="rgb(255, 255, 255)" stroke-linejoin="round" d=" M 737.461, 494.906 733.573, 495.497 732.647, 485.540 731.721, 475.583 731.678, 475.126 738.737, 468.043 739.893, 466.883 748.921, 462.582 749.721, 462.201 "/><path fill="none" stroke-width="5.0" stroke-linecap="butt" stroke-opacity="1.0" stroke="rgb(255, 255, 255)" stroke-linejoin="round" d=" M 661.918, 359.846 656.023, 362.217 653.037, 369.315 652.426, 371.427 652.038, 376.009 651.913, 382.447 651.948, 385.536 651.986, 388.629 652.186, 393.570 652.577, 399.340 652.940, 402.577 653.504, 406.136 656.693, 412.851 657.445, 413.971 664.245, 416.599 "/><path fill="none" stroke-width="5.0" stroke-linecap="butt" stroke-opacity="1.0" stroke="rgb(255, 255, 255)" stroke-linejoin="round" d=" M 959.872, 655.963 959.872, 657.003 959.872, 667.003 959.872, 669.505 959.872, 679.505 959.872, 680.381 959.873, 690.381 959.873, 700.381 959.873, 704.287 959.873, 714.052 959.873, 724.052 959.873, 734.052 959.873, 744.052 959.873, 748.904 959.873, 758.904 959.873, 768.904 959.874, 778.904 959.874, 788.904 959.874, 798.904 959.874, 808.904 959.874, 817.269 959.874, 827.269 959.874, 837.269 959.874, 847.269 959.874, 857.269 959.874, 867.269 959.874, 877.269 959.874, 885.690 959.874, 895.230 959.874, 900.248 959.874, 910.248 959.874, 920.248 959.874, 921.577 959.874, 926.822 959.874, 936.090 959.874, 946.090 959.874, 956.090 959.874, 966.090 959.875, 976.090 959.875, 986.090 959.875, 996.090 959.875, 1000.134 959.875, 1002.285 "/><path fill="none" stroke-width="5.0" stroke-linecap="butt" stroke-opacity="1.0" stroke="rgb(255, 255, 255)" stroke-linejoin="round" d=" M 667.812, 368.694 665.681, 359.277 665.676, 359.256 "/><path fill="none" stroke-width="5.0" stroke-linecap="butt" stroke-opacity="1.0" stroke="rgb(255, 255, 255)" stroke-linejoin="round" d=" M 677.713, 366.519 677.487, 368.425 "/><path fill="none" stroke-width="5.0" stroke-linecap="butt" stroke-opacity="1.0" stroke="rgb(255, 255, 255)" stroke-linejoin="round" d=" M 685.183, 749.538 684.247, 754.995 "/><path fill="none" stroke-width="5.0" stroke-linecap="butt" stroke-opacity="1.0" stroke="rgb(255, 255, 255)" stroke-linejoin="round" d=" M 693.348, 674.369 692.151, 684.297 690.954, 694.226 689.788, 703.890 "/><path fill="none" stroke-width="5.0" stroke-linecap="butt" stroke-opacity="1.0" stroke="rgb(255, 255, 255)" stroke-linejoin="round" d=" M 782.195, 881.803 772.466, 879.491 770.793, 879.093 "/><path fill="none" stroke-width="5.0" stroke-linecap="butt" stroke-opacity="1.0" stroke="rgb(255, 255, 255)" stroke-linejoin="round" d=" M 1137.535, 881.833 1147.264, 879.521 1149.064, 879.093 "/><path fill="none" stroke-width="5.0" stroke-linecap="butt" stroke-opacity="1.0" stroke="rgb(255, 255, 255)" stroke-linejoin="round" d=" M 1230.074, 703.890 1228.877, 693.962 1227.680, 684.033 1226.467, 673.974 "/><path fill="none" stroke-width="5.0" stroke-linecap="butt" stroke-opacity="1.0" stroke="rgb(255, 255, 255)" stroke-linejoin="round" d=" M 1238.728, 368.171 1238.767, 358.171 1238.807, 348.171 1238.808, 347.816 "/><path fill="none" stroke-width="5.0" stroke-linecap="butt" stroke-opacity="1.0" stroke="rgb(255, 255, 255)" stroke-linejoin="round" d=" M 1235.619, 754.995 1234.678, 749.510 "/><path fill="none" stroke-width="5.0" stroke-linecap="butt" stroke-opacity="1.0" stroke="rgb(255, 255, 255)" stroke-linejoin="round" d=" M 1242.370, 368.427 1242.141, 366.502 "/></g></g></svg>