<?xml version="1.0" encoding="utf-8"?>
<svg xmlns="http://www.w3.org/2000/svg" viewBox="61.7003 23.3 338.5999 396.4786" width="338.6px" height="396.479px" preserveAspectRatio="none"><g id="ViewLayer_LineSet" transform="matrix(0.4078150391578675, 0, 0, 0.4078150391578675, -160.5021996572941, 0.7005530104123494)"><g id="strokes"><path fill="none" stroke-width="5.0" stroke-linecap="butt" stroke-opacity="1.0" stroke="rgb(255, 255, 255)" stroke-linejoin="round" d=" M 1168.192, 219.102 1162.742, 210.718 1157.508, 202.668 1149.985, 196.079 1146.830, 193.315 1139.083, 186.991 1131.336, 180.668 1123.590, 174.344 1118.540, 170.222 1110.524, 164.244 1110.092, 163.922 1101.176, 159.394 1097.773, 157.666 1088.740, 153.378 1085.928, 152.043 1076.344, 149.190 1066.760, 146.336 1057.046, 143.444 1052.087, 143.203 1042.106, 143.822 1037.200, 144.126 1035.610, 144.272 1026.741, 148.531 1032.234, 152.345 1034.529, 153.558 1044.347, 155.458 1044.756, 155.537 1054.574, 157.436 1058.359, 158.169 1062.174, 159.653 1071.493, 163.280 1080.812, 166.907 1081.201, 167.058 "/><path fill="none" stroke-width="5.0" stroke-linecap="butt" stroke-opacity="1.0" stroke="rgb(255, 255, 255)" stroke-linejoin="round" d=" M 1052.087, 143.203 1061.757, 145.752 1071.427, 148.300 1076.469, 149.629 "/><path fill="none" stroke-width="5.0" stroke-linecap="butt" stroke-opacity="1.0" stroke="rgb(255, 255, 255)" stroke-linejoin="round" d=" M 1071.030, 158.222 1074.286, 161.051 1080.633, 166.565 1080.850, 166.754 1081.201, 167.058 1084.036, 169.521 1091.585, 176.080 1091.964, 176.409 1092.035, 176.609 1095.364, 186.039 1098.693, 195.469 1099.512, 197.791 1100.990, 201.976 "/><path fill="none" stroke-width="5.0" stroke-linecap="butt" stroke-opacity="1.0" stroke="rgb(255, 255, 255)" stroke-linejoin="round" d=" M 1102.338, 196.285 1102.097, 197.304 1100.990, 201.976 1098.684, 211.706 1096.378, 221.437 1094.531, 229.234 1094.413, 229.730 1091.282, 235.572 1086.559, 244.386 1081.835, 253.200 1077.112, 262.014 1074.630, 266.645 1071.977, 270.880 1066.669, 279.355 1061.360, 287.829 1056.051, 296.304 1051.352, 303.805 1045.686, 312.045 1040.020, 320.285 1034.353, 328.525 1028.687, 336.764 1025.927, 340.779 1020.322, 349.060 1014.717, 357.342 1009.113, 365.624 1003.508, 373.906 1000.016, 379.067 996.098, 388.267 992.180, 397.468 988.263, 406.668 984.345, 415.869 981.815, 421.809 981.311, 431.797 980.808, 441.784 980.304, 451.771 979.800, 461.759 979.297, 471.746 979.270, 472.275 "/><path fill="none" stroke-width="5.0" stroke-linecap="butt" stroke-opacity="1.0" stroke="rgb(255, 255, 255)" stroke-linejoin="round" d=" M 1048.334, 146.547 1058.010, 149.073 1067.686, 151.599 1070.841, 152.423 1078.628, 158.697 1086.415, 164.971 1092.103, 169.553 1092.958, 171.787 1093.013, 171.931 1096.181, 180.204 1096.227, 180.324 1099.803, 189.663 1102.338, 196.285 "/><path fill="none" stroke-width="5.0" stroke-linecap="butt" stroke-opacity="1.0" stroke="rgb(255, 255, 255)" stroke-linejoin="round" d=" M 1274.558, 451.692 1281.125, 444.151 1287.691, 436.609 1294.258, 429.067 1297.444, 425.408 1298.407, 423.606 1303.119, 414.785 1307.830, 405.965 1310.468, 401.027 1315.180, 392.206 1315.369, 391.852 1319.527, 383.250 1322.145, 373.599 1324.764, 363.948 1327.383, 354.297 1330.002, 344.646 1330.410, 343.139 1331.229, 333.173 1332.048, 323.206 1332.867, 313.240 1333.686, 303.274 1333.809, 301.776 1332.965, 291.812 1332.122, 281.848 1331.278, 271.883 1330.925, 267.714 1328.742, 257.956 1326.861, 249.544 1324.452, 243.555 1322.025, 238.780 1319.772, 236.843 1317.888, 236.803 1316.272, 240.988 1314.277, 250.787 1313.818, 253.041 1310.083, 262.317 1306.347, 271.593 1305.433, 273.862 1299.712, 282.064 1293.991, 290.266 1288.270, 298.468 1286.601, 300.861 1284.899, 302.488 1277.670, 309.398 1274.615, 312.320 1270.562, 316.193 1263.334, 323.103 1259.423, 326.843 "/><path fill="none" stroke-width="5.0" stroke-linecap="butt" stroke-opacity="1.0" stroke="rgb(255, 255, 255)" stroke-linejoin="round" d=" M 1317.076, 241.656 1315.863, 251.582 1315.793, 252.153 1312.937, 261.737 1310.082, 271.321 1309.490, 273.308 1304.568, 282.012 1299.646, 290.717 1294.724, 299.422 1294.182, 300.381 1287.439, 307.766 1286.925, 308.329 1280.183, 315.714 1273.827, 322.676 1270.464, 326.359 1262.060, 331.779 1253.656, 337.199 1245.252, 342.618 1241.006, 345.356 1234.690, 348.459 1225.715, 352.869 1216.740, 357.279 1211.280, 359.963 1202.613, 364.951 1193.946, 369.939 1185.822, 374.615 1184.215, 375.752 1176.051, 381.528 1167.888, 387.303 1161.520, 391.808 1153.827, 398.197 1146.134, 404.586 1138.441, 410.975 1134.097, 414.583 "/><path fill="none" stroke-width="5.0" stroke-linecap="butt" stroke-opacity="1.0" stroke="rgb(255, 255, 255)" stroke-linejoin="round" d=" M 1150.166, 591.145 1152.896, 581.525 1153.720, 578.623 1157.126, 569.221 1160.105, 561.000 1161.674, 556.669 "/><path fill="none" stroke-width="5.0" stroke-linecap="butt" stroke-opacity="1.0" stroke="rgb(255, 255, 255)" stroke-linejoin="round" d=" M 1161.674, 556.669 1166.366, 547.838 1171.058, 539.007 1173.738, 533.964 "/><path fill="none" stroke-width="5.0" stroke-linecap="butt" stroke-opacity="1.0" stroke="rgb(255, 255, 255)" stroke-linejoin="round" d=" M 1317.888, 236.803 1318.900, 239.760 "/><path fill="none" stroke-width="5.0" stroke-linecap="butt" stroke-opacity="1.0" stroke="rgb(255, 255, 255)" stroke-linejoin="round" d=" M 1160.105, 561.000 1165.161, 552.372 1170.217, 543.744 1171.052, 542.319 1177.331, 534.537 1183.610, 526.754 1186.569, 523.087 1193.973, 516.365 1201.377, 509.643 1203.436, 507.774 1211.459, 501.804 1219.481, 495.834 1223.581, 492.783 "/><path fill="none" stroke-width="5.0" stroke-linecap="butt" stroke-opacity="1.0" stroke="rgb(255, 255, 255)" stroke-linejoin="round" d=" M 1284.899, 302.488 1281.621, 293.041 1278.343, 283.593 1275.065, 274.146 1273.804, 270.512 1270.141, 261.208 1266.477, 251.903 1263.184, 243.541 1259.169, 234.382 1255.154, 225.223 1251.139, 216.065 1247.124, 206.906 1245.936, 204.195 1241.271, 195.350 1236.606, 186.505 1231.941, 177.659 1227.276, 168.814 1224.683, 163.898 1219.500, 155.346 1214.316, 146.794 1212.287, 143.446 1206.893, 135.026 1204.579, 131.414 1200.005, 124.275 1199.999, 124.264 1194.604, 115.844 1191.870, 111.576 "/><path fill="none" stroke-width="5.0" stroke-linecap="butt" stroke-opacity="1.0" stroke="rgb(255, 255, 255)" stroke-linejoin="round" d=" M 1158.113, 74.424 1164.834, 81.829 1171.555, 89.233 1173.247, 91.097 1178.158, 99.808 1183.070, 108.519 1185.978, 113.676 1188.840, 123.257 1191.703, 132.839 1193.880, 140.126 1194.981, 150.065 1196.082, 160.004 1197.178, 169.894 1197.092, 179.894 1197.005, 189.894 1196.918, 199.893 1196.895, 202.546 1196.098, 212.514 1195.301, 222.483 1194.505, 232.451 1194.176, 236.569 1192.981, 243.940 1191.381, 253.811 1189.781, 263.683 1189.209, 267.216 1188.640, 270.724 1184.822, 279.966 1181.004, 289.209 1177.186, 298.451 1176.820, 299.336 1176.579, 299.918 1176.247, 300.724 1173.921, 306.355 1169.216, 315.179 1164.512, 324.004 1159.808, 332.828 1155.104, 341.652 1152.523, 346.493 1147.300, 355.020 1142.076, 363.547 1136.852, 372.074 1131.629, 380.602 1128.637, 385.485 1124.605, 394.636 1120.573, 403.787 1116.540, 412.938 1114.044, 418.604 1113.781, 420.694 "/><path fill="none" stroke-width="5.0" stroke-linecap="butt" stroke-opacity="1.0" stroke="rgb(255, 255, 255)" stroke-linejoin="round" d=" M 1204.579, 131.414 1200.776, 125.269 1195.324, 116.886 1191.870, 111.576 1185.976, 103.497 1182.443, 98.655 1175.680, 91.289 1168.917, 83.923 1164.314, 78.910 1158.113, 74.424 1149.793, 68.877 1147.575, 67.398 1143.255, 64.837 1134.007, 61.031 1130.793, 59.707 1124.705, 57.177 1122.379, 56.453 1118.263, 55.416 1115.783, 56.653 "/><path fill="none" stroke-width="5.0" stroke-linecap="butt" stroke-opacity="1.0" stroke="rgb(255, 255, 255)" stroke-linejoin="round" d=" M 1122.379, 56.453 1130.793, 59.707 "/><path fill="none" stroke-width="5.0" stroke-linecap="butt" stroke-opacity="1.0" stroke="rgb(255, 255, 255)" stroke-linejoin="round" d=" M 1148.422, 84.324 1139.962, 78.994 1134.662, 75.655 1125.979, 70.695 1123.855, 69.482 1118.427, 64.845 1116.186, 62.414 1114.759, 60.303 1115.116, 57.088 1115.783, 56.653 1115.496, 57.641 1115.088, 59.047 1114.759, 60.303 "/><path fill="none" stroke-width="5.0" stroke-linecap="butt" stroke-opacity="1.0" stroke="rgb(255, 255, 255)" stroke-linejoin="round" d=" M 1161.462, 101.005 1164.270, 110.157 1167.203, 119.717 1169.381, 126.815 1171.004, 136.682 1172.628, 146.549 1174.087, 155.419 1173.949, 165.418 1173.810, 175.417 1173.672, 185.416 1173.638, 187.860 1171.921, 197.712 1170.204, 207.563 1168.486, 217.415 1168.192, 219.102 "/><path fill="none" stroke-width="5.0" stroke-linecap="butt" stroke-opacity="1.0" stroke="rgb(255, 255, 255)" stroke-linejoin="round" d=" M 1153.980, 88.815 1155.627, 92.232 1159.970, 101.240 1164.270, 110.157 "/><path fill="none" stroke-width="5.0" stroke-linecap="butt" stroke-opacity="1.0" stroke="rgb(255, 255, 255)" stroke-linejoin="round" d=" M 1144.906, 80.465 1148.422, 84.324 1155.157, 91.716 1155.627, 92.232 "/><path fill="none" stroke-width="5.0" stroke-linecap="butt" stroke-opacity="1.0" stroke="rgb(255, 255, 255)" stroke-linejoin="round" d=" M 1127.810, 61.302 1137.045, 65.139 1139.611, 66.206 1147.730, 72.044 1152.852, 75.726 1158.691, 83.844 1164.531, 91.962 1165.003, 92.619 1168.794, 101.873 1172.585, 111.126 1174.335, 115.398 1176.200, 125.222 1178.065, 135.047 1179.353, 141.831 1179.370, 151.831 1179.386, 161.831 1179.403, 172.122 1178.066, 182.032 1176.728, 191.942 1175.391, 201.852 1174.783, 206.357 1173.059, 216.208 1171.628, 224.387 1170.556, 230.515 1168.832, 240.365 1168.616, 241.599 "/><path fill="none" stroke-width="5.0" stroke-linecap="butt" stroke-opacity="1.0" stroke="rgb(255, 255, 255)" stroke-linejoin="round" d=" M 785.568, 617.599 795.205, 620.269 804.842, 622.939 814.328, 625.567 823.965, 628.237 833.602, 630.907 843.239, 633.577 844.812, 634.013 854.449, 636.683 864.086, 639.353 872.966, 641.814 881.682, 646.717 890.397, 651.620 899.113, 656.523 907.828, 661.427 916.543, 666.330 917.436, 666.832 924.764, 673.636 932.092, 680.440 939.421, 687.244 946.749, 694.048 954.078, 700.852 960.000, 706.351 967.328, 699.547 974.657, 692.743 981.985, 685.939 989.313, 679.135 996.642, 672.331 1002.564, 666.832 1011.280, 661.929 1019.995, 657.025 1028.710, 652.122 1037.426, 647.219 1046.141, 642.316 1047.033, 641.814 1056.670, 639.144 1066.307, 636.473 1075.188, 634.013 1084.825, 631.343 1094.462, 628.673 1104.099, 626.003 1105.672, 625.567 1115.309, 622.897 1124.946, 620.227 1134.432, 617.599 "/><path fill="none" stroke-width="5.0" stroke-linecap="butt" stroke-opacity="1.0" stroke="rgb(255, 255, 255)" stroke-linejoin="round" d=" M 1134.432, 617.599 1144.401, 616.812 1154.370, 616.026 1164.339, 615.240 1174.308, 614.454 1184.277, 613.668 1194.246, 612.882 1204.215, 612.096 1214.184, 611.310 1215.410, 611.213 1225.178, 613.354 1234.946, 615.494 1244.714, 617.635 1254.483, 619.776 1264.251, 621.916 1274.019, 624.057 1283.265, 626.083 1290.686, 632.787 1298.106, 639.490 1301.200, 642.285 1301.234, 642.316 1308.654, 649.019 1316.075, 655.723 1320.333, 659.570 1321.928, 669.442 1323.523, 679.314 1323.916, 681.748 1323.690, 684.205 1322.772, 694.163 1321.854, 704.121 1320.937, 714.078 1319.998, 724.269 1317.989, 734.065 1315.980, 743.861 1313.971, 753.657 1311.963, 763.453 1309.954, 773.249 1307.945, 783.046 1305.936, 792.842 1303.827, 803.131 1299.906, 812.330 1295.986, 821.530 1292.066, 830.729 1288.146, 839.929 1284.225, 849.129 1280.305, 858.328 1276.605, 867.012 1271.819, 875.792 1267.033, 884.572 1262.246, 893.352 1257.460, 902.133 1252.674, 910.913 1247.888, 919.693 1245.990, 923.174 1240.746, 931.689 1235.502, 940.203 1231.089, 947.368 "/><path fill="none" stroke-width="5.0" stroke-linecap="butt" stroke-opacity="1.0" stroke="rgb(255, 255, 255)" stroke-linejoin="round" d=" M 1284.692, 607.957 1274.907, 605.896 1265.121, 603.836 1255.336, 601.775 1245.551, 599.714 1235.765, 597.654 1225.980, 595.593 1218.148, 593.944 1208.155, 594.305 1198.161, 594.665 1188.168, 595.026 1178.174, 595.387 1168.181, 595.748 1158.187, 596.109 1148.611, 596.455 1138.618, 596.816 1133.067, 597.017 "/><path fill="none" stroke-width="5.0" stroke-linecap="butt" stroke-opacity="1.0" stroke="rgb(255, 255, 255)" stroke-linejoin="round" d=" M 1105.672, 625.567 1115.490, 623.668 1125.308, 621.769 1132.681, 620.343 1142.621, 619.246 1152.560, 618.149 1162.500, 617.052 1172.440, 615.955 1182.379, 614.858 1192.319, 613.761 1202.259, 612.664 1208.646, 611.960 1215.410, 611.213 "/><path fill="none" stroke-width="5.0" stroke-linecap="butt" stroke-opacity="1.0" stroke="rgb(255, 255, 255)" stroke-linejoin="round" d=" M 1208.646, 611.960 1218.403, 614.154 1228.159, 616.348 1237.915, 618.542 1247.672, 620.736 1257.428, 622.930 1267.184, 625.124 1273.841, 626.622 1280.430, 634.144 1287.019, 641.666 1293.608, 649.189 1300.197, 656.711 1304.287, 661.380 1305.392, 662.642 "/><path fill="none" stroke-width="5.0" stroke-linecap="butt" stroke-opacity="1.0" stroke="rgb(255, 255, 255)" stroke-linejoin="round" d=" M 1304.287, 661.380 1305.882, 671.252 1307.478, 681.124 1307.624, 682.028 1307.004, 692.008 1306.384, 701.989 1305.764, 711.970 1305.143, 721.951 1305.102, 722.612 1303.042, 732.397 1301.934, 737.656 1299.873, 747.441 1297.813, 757.226 1295.752, 767.012 1293.691, 776.797 1292.979, 780.181 1290.918, 789.966 1288.927, 799.422 1285.447, 808.797 1281.967, 818.172 1278.488, 827.547 1275.008, 836.922 1271.529, 846.297 1268.049, 855.673 1265.925, 861.397 1261.023, 870.113 1256.122, 878.830 1251.221, 887.547 1246.320, 896.263 1241.418, 904.980 1236.517, 913.696 1235.558, 915.401 1230.319, 923.919 1225.080, 932.436 1219.882, 940.886 1218.198, 950.743 1216.514, 960.601 1214.831, 970.458 1213.147, 980.315 1211.463, 990.172 1211.253, 991.404 1211.617, 1001.398 1211.981, 1011.391 1212.345, 1021.384 1212.386, 1022.500 1221.526, 1026.556 1223.917, 1027.618 1229.683, 1025.866 1234.289, 1016.990 1238.894, 1008.114 1243.543, 999.154 1251.371, 992.931 1259.199, 986.708 1267.027, 980.485 1271.319, 977.074 1278.710, 970.338 1286.102, 963.603 1293.493, 956.868 1300.885, 950.132 1303.290, 947.941 1309.723, 940.286 1316.157, 932.630 1322.591, 924.975 1327.256, 919.423 1333.201, 911.381 1339.145, 903.340 1345.089, 895.298 1348.572, 890.586 1353.400, 881.829 1358.227, 873.071 1363.055, 864.314 1366.519, 858.030 1368.032, 848.145 1369.546, 838.260 1371.060, 828.375 1372.573, 818.491 1374.087, 808.606 1374.292, 807.267 1374.479, 797.269 1374.665, 787.270 1374.852, 777.272 1375.038, 767.274 1375.139, 761.853 1374.887, 751.856 1374.635, 741.859 1374.383, 731.863 1374.344, 730.303 1374.092, 720.306 1373.840, 710.309 1373.588, 700.313 1373.548, 698.745 1372.679, 688.783 1371.810, 678.821 1371.001, 669.557 1370.132, 659.595 1369.262, 649.633 1368.462, 640.460 1366.272, 630.703 1364.082, 620.946 1362.348, 613.216 1360.158, 603.459 1357.969, 593.702 1357.305, 590.745 1357.277, 590.619 1357.186, 590.216 1357.008, 589.422 1354.809, 579.621 1352.601, 569.868 1352.497, 569.408 1350.290, 559.654 1348.047, 549.741 1345.839, 539.987 1343.632, 530.234 1341.425, 520.481 1339.218, 510.727 1338.191, 506.189 1336.673, 500.270 1334.188, 490.584 1331.703, 480.897 1329.219, 471.211 1326.734, 461.524 1325.741, 457.653 1323.256, 447.966 1320.772, 438.280 1318.287, 428.594 1315.802, 418.907 1313.577, 410.231 1310.468, 401.027 "/><path fill="none" stroke-width="5.0" stroke-linecap="butt" stroke-opacity="1.0" stroke="rgb(255, 255, 255)" stroke-linejoin="round" d=" M 1219.882, 940.886 1228.538, 945.893 1231.089, 947.368 1229.569, 957.252 1228.048, 967.135 1226.527, 977.019 1225.007, 986.903 1224.091, 992.856 1224.041, 1002.856 1223.991, 1012.856 1223.941, 1022.856 1223.917, 1027.618 "/><path fill="none" stroke-width="5.0" stroke-linecap="butt" stroke-opacity="1.0" stroke="rgb(255, 255, 255)" stroke-linejoin="round" d=" M 1305.392, 662.642 1306.536, 672.576 1307.624, 682.028 "/><path fill="none" stroke-width="5.0" stroke-linecap="butt" stroke-opacity="1.0" stroke="rgb(255, 255, 255)" stroke-linejoin="round" d=" M 1041.807, 280.629 1051.322, 277.555 1060.838, 274.480 1070.354, 271.405 1071.977, 270.880 "/><path fill="none" stroke-width="5.0" stroke-linecap="butt" stroke-opacity="1.0" stroke="rgb(255, 255, 255)" stroke-linejoin="round" d=" M 1317.860, 630.880 1309.659, 625.158 1301.458, 619.436 1293.256, 613.714 1285.055, 607.992 1276.854, 602.271 1275.456, 601.295 1265.616, 599.511 1255.776, 597.727 1245.937, 595.943 1236.097, 594.159 1226.258, 592.375 1216.418, 590.591 1210.188, 589.461 1200.192, 589.742 1190.196, 590.022 1180.200, 590.303 1170.204, 590.583 1160.208, 590.864 1150.166, 591.145 "/><path fill="none" stroke-width="5.0" stroke-linecap="butt" stroke-opacity="1.0" stroke="rgb(255, 255, 255)" stroke-linejoin="round" d=" M 627.021, 780.181 630.701, 789.480 634.379, 798.778 637.612, 806.948 641.536, 816.146 645.461, 825.343 649.385, 834.541 653.310, 843.739 657.234, 852.936 661.159, 862.134 665.083, 871.332 667.592, 877.212 677.589, 877.466 687.586, 877.721 688.170, 877.735 696.767, 877.674 706.699, 878.838 716.631, 880.002 720.160, 880.415 730.159, 880.594 740.157, 880.772 750.156, 880.951 753.844, 881.016 763.835, 880.584 773.825, 880.151 783.816, 879.719 793.522, 879.298 803.515, 878.934 813.509, 878.571 823.502, 878.207 833.496, 877.843 837.999, 877.680 847.990, 877.260 857.981, 876.841 867.972, 876.422 870.647, 876.310 880.646, 876.208 890.646, 876.106 900.645, 876.004 901.431, 875.996 911.431, 876.066 921.431, 876.135 926.966, 876.174 936.956, 876.641 944.305, 876.984 954.302, 876.754 960.000, 876.623 969.997, 876.853 975.695, 876.984 985.684, 876.517 993.034, 876.174 1003.033, 876.104 1013.033, 876.034 1018.569, 875.996 1028.568, 876.098 1038.568, 876.200 1048.567, 876.302 1049.353, 876.310 1059.345, 876.729 1069.336, 877.148 1079.327, 877.567 1082.001, 877.680 1091.995, 878.043 1101.988, 878.407 1111.981, 878.771 1121.975, 879.134 1126.478, 879.298 1136.469, 879.731 1146.459, 880.163 1156.450, 880.596 1166.156, 881.016 1176.154, 880.838 1186.153, 880.659 1196.151, 880.481 1199.839, 880.415 1209.772, 879.251 1219.704, 878.088 1223.233, 877.674 1231.830, 877.735 1241.827, 877.481 1251.823, 877.227 1252.408, 877.212 1256.332, 868.014 1260.257, 858.816 1264.181, 849.619 1268.106, 840.421 1272.031, 831.223 1275.955, 822.025 1279.880, 812.828 1282.388, 806.948 1286.067, 797.649 1289.746, 788.350 1292.979, 780.181 "/><path fill="none" stroke-width="5.0" stroke-linecap="butt" stroke-opacity="1.0" stroke="rgb(255, 255, 255)" stroke-linejoin="round" d=" M 1301.934, 737.656 1298.696, 747.117 1295.458, 756.578 1294.655, 758.924 1290.817, 768.158 1286.979, 777.393 1283.142, 786.627 1279.304, 795.861 1275.466, 805.095 1274.337, 807.811 1270.385, 816.998 1266.434, 826.184 1262.482, 835.370 1258.531, 844.556 1254.579, 853.742 1250.627, 862.928 1246.676, 872.114 1245.381, 875.123 "/><path fill="none" stroke-width="5.0" stroke-linecap="butt" stroke-opacity="1.0" stroke="rgb(255, 255, 255)" stroke-linejoin="round" d=" M 1223.233, 877.674 1233.168, 876.530 1243.102, 875.385 1245.381, 875.123 1252.408, 877.212 "/><path fill="none" stroke-width="5.0" stroke-linecap="butt" stroke-opacity="1.0" stroke="rgb(255, 255, 255)" stroke-linejoin="round" d=" M 1240.755, 947.359 1245.882, 938.773 1251.009, 930.188 1256.136, 921.602 1261.263, 913.016 1266.391, 904.431 1271.518, 895.845 1276.645, 887.259 1281.772, 878.674 1286.528, 870.710 "/><path fill="none" stroke-width="5.0" stroke-linecap="butt" stroke-opacity="1.0" stroke="rgb(255, 255, 255)" stroke-linejoin="round" d=" M 1282.423, 899.871 1287.585, 891.306 1292.747, 882.741 1297.908, 874.177 1303.070, 865.612 1308.231, 857.047 1311.346, 851.878 1315.342, 842.711 1319.338, 833.544 1323.185, 824.717 "/><path fill="none" stroke-width="5.0" stroke-linecap="butt" stroke-opacity="1.0" stroke="rgb(255, 255, 255)" stroke-linejoin="round" d=" M 1099.512, 197.791 1089.685, 199.642 1079.858, 201.493 1072.095, 202.956 1068.195, 203.333 1058.242, 204.294 1050.731, 205.020 "/><path fill="none" stroke-width="5.0" stroke-linecap="butt" stroke-opacity="1.0" stroke="rgb(255, 255, 255)" stroke-linejoin="round" d=" M 1012.846, 180.264 1002.850, 180.554 992.855, 180.844 989.155, 180.951 979.813, 184.518 977.439, 185.424 968.981, 188.653 960.000, 188.381 951.019, 188.653 942.561, 185.424 933.218, 181.857 930.845, 180.951 920.849, 180.661 910.853, 180.372 907.154, 180.264 "/><path fill="none" stroke-width="5.0" stroke-linecap="butt" stroke-opacity="1.0" stroke="rgb(255, 255, 255)" stroke-linejoin="round" d=" M 1362.348, 613.216 1363.171, 603.250 1363.496, 599.315 1361.216, 589.578 1358.937, 579.842 1356.657, 570.105 1354.378, 560.368 1352.098, 550.632 1349.818, 540.895 1348.794, 536.521 1345.623, 527.037 1342.452, 517.553 1339.281, 508.069 1336.673, 500.270 "/><path fill="none" stroke-width="5.0" stroke-linecap="butt" stroke-opacity="1.0" stroke="rgb(255, 255, 255)" stroke-linejoin="round" d=" M 986.343, 224.060 979.118, 230.975 977.643, 232.387 970.419, 239.302 968.852, 240.802 "/><path fill="none" stroke-width="5.0" stroke-linecap="butt" stroke-opacity="1.0" stroke="rgb(255, 255, 255)" stroke-linejoin="round" d=" M 974.984, 195.128 967.835, 196.703 960.000, 198.722 952.165, 196.703 945.016, 195.128 "/><path fill="none" stroke-width="5.0" stroke-linecap="butt" stroke-opacity="1.0" stroke="rgb(255, 255, 255)" stroke-linejoin="round" d=" M 1068.195, 203.333 1062.713, 197.765 1053.085, 195.062 1043.859, 192.471 1035.838, 186.500 1027.816, 180.529 1019.794, 174.558 1011.773, 168.587 1007.224, 165.201 998.951, 170.818 990.678, 176.435 982.404, 182.053 977.439, 185.424 "/><path fill="none" stroke-width="5.0" stroke-linecap="butt" stroke-opacity="1.0" stroke="rgb(255, 255, 255)" stroke-linejoin="round" d=" M 1007.224, 165.201 1010.721, 174.570 1012.846, 180.264 "/><path fill="none" stroke-width="5.0" stroke-linecap="butt" stroke-opacity="1.0" stroke="rgb(255, 255, 255)" stroke-linejoin="round" d=" M 838.799, 167.058 848.118, 163.431 857.438, 159.804 857.826, 159.653 861.641, 158.169 871.458, 156.269 875.244, 155.537 885.062, 153.637 885.471, 153.558 887.766, 152.345 893.259, 148.531 884.390, 144.272 882.800, 144.126 872.819, 143.507 867.913, 143.203 862.954, 143.444 853.370, 146.297 843.786, 149.151 834.072, 152.043 825.038, 156.332 822.227, 157.666 813.311, 162.194 809.908, 163.922 801.891, 169.900 801.460, 170.222 793.713, 176.546 785.967, 182.869 778.220, 189.193 773.170, 193.315 765.648, 199.904 762.492, 202.668 757.042, 211.052 751.808, 219.102 "/><path fill="none" stroke-width="5.0" stroke-linecap="butt" stroke-opacity="1.0" stroke="rgb(255, 255, 255)" stroke-linejoin="round" d=" M 843.531, 149.629 853.201, 147.081 862.871, 144.532 867.913, 143.203 "/><path fill="none" stroke-width="5.0" stroke-linecap="butt" stroke-opacity="1.0" stroke="rgb(255, 255, 255)" stroke-linejoin="round" d=" M 819.010, 201.976 820.487, 197.791 823.817, 188.361 827.146, 178.932 827.965, 176.609 828.036, 176.409 835.585, 169.851 835.964, 169.521 838.799, 167.058 839.150, 166.754 839.367, 166.565 845.714, 161.051 848.970, 158.222 "/><path fill="none" stroke-width="5.0" stroke-linecap="butt" stroke-opacity="1.0" stroke="rgb(255, 255, 255)" stroke-linejoin="round" d=" M 940.730, 472.275 940.226, 462.287 939.723, 452.300 939.219, 442.313 938.715, 432.325 938.212, 422.338 938.185, 421.809 934.267, 412.609 930.349, 403.408 926.431, 394.208 922.514, 385.007 919.984, 379.067 914.379, 370.785 908.775, 362.503 903.170, 354.221 897.566, 345.939 894.073, 340.779 888.407, 332.539 882.741, 324.299 877.075, 316.059 871.408, 307.820 868.648, 303.805 863.339, 295.331 858.030, 286.856 852.722, 278.382 848.023, 270.880 845.369, 266.645 840.646, 257.831 835.923, 249.017 831.199, 240.203 828.718, 235.572 825.587, 229.730 825.469, 229.234 823.164, 219.503 820.858, 209.773 819.010, 201.976 817.903, 197.304 817.662, 196.285 "/><path fill="none" stroke-width="5.0" stroke-linecap="butt" stroke-opacity="1.0" stroke="rgb(255, 255, 255)" stroke-linejoin="round" d=" M 817.662, 196.285 821.237, 186.946 823.773, 180.324 823.819, 180.204 826.987, 171.931 827.042, 171.787 827.897, 169.553 835.684, 163.279 843.471, 157.006 849.159, 152.423 858.835, 149.897 868.510, 147.371 871.666, 146.547 "/><path fill="none" stroke-width="5.0" stroke-linecap="butt" stroke-opacity="1.0" stroke="rgb(255, 255, 255)" stroke-linejoin="round" d=" M 660.577, 326.843 653.349, 319.932 649.438, 316.193 645.385, 312.320 638.157, 305.409 635.101, 302.488 633.399, 300.861 627.678, 292.659 621.957, 284.457 616.236, 276.255 614.567, 273.862 610.831, 264.586 607.096, 255.310 606.182, 253.041 604.187, 243.242 603.728, 240.988 602.112, 236.803 600.228, 236.843 597.975, 238.780 595.548, 243.555 593.139, 249.544 590.956, 259.303 589.075, 267.714 588.231, 277.679 587.388, 287.643 586.544, 297.608 586.191, 301.776 587.010, 311.743 587.829, 321.709 588.648, 331.676 589.467, 341.642 589.590, 343.139 592.208, 352.790 594.827, 362.441 597.446, 372.092 600.065, 381.743 600.473, 383.250 604.631, 391.852 609.343, 400.672 609.532, 401.027 614.244, 409.847 618.955, 418.668 621.593, 423.606 622.556, 425.408 629.122, 432.950 635.689, 440.491 642.256, 448.033 645.442, 451.692 "/><path fill="none" stroke-width="5.0" stroke-linecap="butt" stroke-opacity="1.0" stroke="rgb(255, 255, 255)" stroke-linejoin="round" d=" M 785.903, 414.583 778.210, 408.194 770.517, 401.805 762.824, 395.416 758.480, 391.808 750.316, 386.033 742.153, 380.257 735.785, 375.752 734.178, 374.615 725.511, 369.627 716.844, 364.638 708.720, 359.963 699.745, 355.553 690.770, 351.143 685.310, 348.459 678.994, 345.356 670.590, 339.936 662.186, 334.517 653.782, 329.097 649.536, 326.359 646.173, 322.676 639.430, 315.291 633.075, 308.329 626.332, 300.944 625.818, 300.381 620.896, 291.676 615.974, 282.971 611.052, 274.266 610.510, 273.308 607.655, 263.724 604.799, 254.140 604.207, 252.153 602.994, 242.227 602.924, 241.656 "/><path fill="none" stroke-width="5.0" stroke-linecap="butt" stroke-opacity="1.0" stroke="rgb(255, 255, 255)" stroke-linejoin="round" d=" M 758.326, 556.669 759.895, 561.000 763.301, 570.402 766.280, 578.623 769.010, 588.243 769.834, 591.145 "/><path fill="none" stroke-width="5.0" stroke-linecap="butt" stroke-opacity="1.0" stroke="rgb(255, 255, 255)" stroke-linejoin="round" d=" M 746.262, 533.964 750.954, 542.795 755.646, 551.626 758.326, 556.669 "/><path fill="none" stroke-width="5.0" stroke-linecap="butt" stroke-opacity="1.0" stroke="rgb(255, 255, 255)" stroke-linejoin="round" d=" M 601.101, 239.760 602.112, 236.803 "/><path fill="none" stroke-width="5.0" stroke-linecap="butt" stroke-opacity="1.0" stroke="rgb(255, 255, 255)" stroke-linejoin="round" d=" M 696.419, 492.783 704.442, 498.753 712.464, 504.723 716.564, 507.774 723.968, 514.495 731.371, 521.217 733.431, 523.087 739.710, 530.870 745.990, 538.652 748.948, 542.319 754.004, 550.947 759.060, 559.575 759.895, 561.000 "/><path fill="none" stroke-width="5.0" stroke-linecap="butt" stroke-opacity="1.0" stroke="rgb(255, 255, 255)" stroke-linejoin="round" d=" M 728.130, 111.576 722.736, 119.996 720.001, 124.264 719.995, 124.275 715.421, 131.414 710.027, 139.835 707.713, 143.446 702.529, 151.998 697.346, 160.550 695.317, 163.898 690.652, 172.743 685.987, 181.588 681.322, 190.433 676.657, 199.279 674.065, 204.195 670.049, 213.354 666.034, 222.512 662.020, 231.671 658.005, 240.829 656.816, 243.541 653.152, 252.845 649.489, 262.150 646.196, 270.512 642.918, 279.960 639.640, 289.407 636.362, 298.855 635.101, 302.488 "/><path fill="none" stroke-width="5.0" stroke-linecap="butt" stroke-opacity="1.0" stroke="rgb(255, 255, 255)" stroke-linejoin="round" d=" M 806.219, 420.694 805.956, 418.604 801.924, 409.453 797.892, 400.302 793.860, 391.151 791.363, 385.485 786.140, 376.958 780.916, 368.431 775.692, 359.904 770.468, 351.376 767.477, 346.493 762.773, 337.668 758.068, 328.844 753.364, 320.020 748.660, 311.195 746.080, 306.355 743.753, 300.724 743.420, 299.918 743.180, 299.336 739.362, 290.094 735.543, 280.851 731.725, 271.609 731.360, 270.724 730.791, 267.216 729.191, 257.345 727.592, 247.474 727.019, 243.940 725.825, 236.569 725.028, 226.600 724.231, 216.632 723.434, 206.664 723.105, 202.546 723.018, 192.547 722.931, 182.547 722.845, 172.547 722.822, 169.894 723.923, 159.955 725.024, 150.016 726.120, 140.126 728.983, 130.544 731.845, 120.963 734.022, 113.676 738.934, 104.965 743.846, 96.254 746.753, 91.097 753.474, 83.693 760.195, 76.288 761.887, 74.424 "/><path fill="none" stroke-width="5.0" stroke-linecap="butt" stroke-opacity="1.0" stroke="rgb(255, 255, 255)" stroke-linejoin="round" d=" M 715.421, 131.414 719.224, 125.269 724.676, 116.886 728.130, 111.576 734.024, 103.497 737.557, 98.655 744.320, 91.289 751.083, 83.923 755.686, 78.910 761.887, 74.424 770.207, 68.877 772.425, 67.398 776.746, 64.837 785.993, 61.031 789.207, 59.707 797.621, 56.453 801.737, 55.416 804.217, 56.653 "/><path fill="none" stroke-width="5.0" stroke-linecap="butt" stroke-opacity="1.0" stroke="rgb(255, 255, 255)" stroke-linejoin="round" d=" M 797.621, 56.453 795.295, 57.177 789.207, 59.707 "/><path fill="none" stroke-width="5.0" stroke-linecap="butt" stroke-opacity="1.0" stroke="rgb(255, 255, 255)" stroke-linejoin="round" d=" M 805.241, 60.303 804.912, 59.047 804.504, 57.641 804.217, 56.653 804.883, 57.088 805.241, 60.303 803.814, 62.414 801.573, 64.845 796.145, 69.482 787.462, 74.442 785.338, 75.655 776.877, 80.985 771.578, 84.324 "/><path fill="none" stroke-width="5.0" stroke-linecap="butt" stroke-opacity="1.0" stroke="rgb(255, 255, 255)" stroke-linejoin="round" d=" M 751.808, 219.102 750.091, 209.251 748.373, 199.399 746.656, 189.548 746.362, 187.860 746.224, 177.861 746.085, 167.862 745.947, 157.863 745.913, 155.419 747.536, 145.552 749.160, 135.685 750.619, 126.815 753.553, 117.254 755.730, 110.157 758.538, 101.005 "/><path fill="none" stroke-width="5.0" stroke-linecap="butt" stroke-opacity="1.0" stroke="rgb(255, 255, 255)" stroke-linejoin="round" d=" M 751.384, 241.599 749.660, 231.748 749.444, 230.515 748.372, 224.387 746.648, 214.537 745.217, 206.357 743.880, 196.447 742.542, 186.537 741.205, 176.627 740.597, 172.122 740.614, 162.122 740.630, 152.122 740.647, 141.831 742.512, 132.006 744.377, 122.182 745.665, 115.398 749.456, 106.144 753.247, 96.891 754.997, 92.619 760.836, 84.501 766.676, 76.383 767.148, 75.726 775.267, 69.889 780.389, 66.206 789.623, 62.368 792.190, 61.302 "/><path fill="none" stroke-width="5.0" stroke-linecap="butt" stroke-opacity="1.0" stroke="rgb(255, 255, 255)" stroke-linejoin="round" d=" M 786.933, 597.017 776.939, 596.656 771.389, 596.455 761.395, 596.094 751.402, 595.733 741.408, 595.372 731.415, 595.011 721.422, 594.650 711.428, 594.289 701.852, 593.944 692.066, 596.004 682.281, 598.065 672.496, 600.126 662.710, 602.186 652.925, 604.247 643.139, 606.308 635.308, 607.957 "/><path fill="none" stroke-width="5.0" stroke-linecap="butt" stroke-opacity="1.0" stroke="rgb(255, 255, 255)" stroke-linejoin="round" d=" M 688.911, 947.368 683.666, 938.853 678.422, 930.339 674.010, 923.174 669.223, 914.394 664.437, 905.614 659.651, 896.833 654.865, 888.053 650.079, 879.273 645.293, 870.493 643.395, 867.012 639.475, 857.812 635.555, 848.613 631.634, 839.413 627.714, 830.213 623.794, 821.014 619.874, 811.814 616.173, 803.131 614.165, 793.335 612.156, 783.538 610.147, 773.742 608.138, 763.946 606.130, 754.150 604.121, 744.354 602.112, 734.558 600.002, 724.269 599.085, 714.311 598.167, 704.353 597.249, 694.395 596.310, 684.205 596.084, 681.748 597.679, 671.876 599.274, 662.004 599.667, 659.570 607.088, 652.866 614.508, 646.163 618.766, 642.316 618.800, 642.285 626.221, 635.582 633.641, 628.878 636.735, 626.083 646.503, 623.943 656.271, 621.802 666.039, 619.661 675.807, 617.521 685.576, 615.380 695.344, 613.239 704.590, 611.213 714.559, 611.999 724.528, 612.785 734.497, 613.571 744.466, 614.358 754.435, 615.144 764.405, 615.930 774.374, 616.716 784.343, 617.502 785.568, 617.599 "/><path fill="none" stroke-width="5.0" stroke-linecap="butt" stroke-opacity="1.0" stroke="rgb(255, 255, 255)" stroke-linejoin="round" d=" M 704.590, 611.213 711.354, 611.960 721.293, 613.056 731.233, 614.153 741.173, 615.250 751.112, 616.347 761.052, 617.444 770.992, 618.541 780.931, 619.638 787.319, 620.343 797.137, 622.242 806.955, 624.141 814.328, 625.567 "/><path fill="none" stroke-width="5.0" stroke-linecap="butt" stroke-opacity="1.0" stroke="rgb(255, 255, 255)" stroke-linejoin="round" d=" M 614.608, 662.642 615.713, 661.380 622.302, 653.858 628.891, 646.335 635.480, 638.813 642.069, 631.291 646.159, 626.622 655.915, 624.427 665.671, 622.233 675.428, 620.039 685.184, 617.845 694.940, 615.651 704.697, 613.457 711.354, 611.960 "/><path fill="none" stroke-width="5.0" stroke-linecap="butt" stroke-opacity="1.0" stroke="rgb(255, 255, 255)" stroke-linejoin="round" d=" M 609.532, 401.027 606.423, 410.231 603.938, 419.918 601.454, 429.604 598.969, 439.290 596.484, 448.977 594.259, 457.653 591.774, 467.339 589.290, 477.026 586.805, 486.712 584.320, 496.398 583.327, 500.270 581.809, 506.189 579.602, 515.943 577.395, 525.696 575.188, 535.450 572.980, 545.203 571.953, 549.741 569.746, 559.494 567.503, 569.408 565.296, 579.161 565.191, 579.621 562.992, 589.422 562.814, 590.216 562.723, 590.619 562.695, 590.745 560.505, 600.502 558.316, 610.260 557.652, 613.216 555.463, 622.974 553.273, 632.731 551.538, 640.460 550.669, 650.423 549.799, 660.385 548.999, 669.557 548.130, 679.519 547.260, 689.481 546.452, 698.745 546.200, 708.742 545.948, 718.739 545.695, 728.736 545.656, 730.303 545.404, 740.300 545.152, 750.297 544.900, 760.294 544.861, 761.853 545.047, 771.851 545.234, 781.850 545.420, 791.848 545.607, 801.846 545.708, 807.267 547.222, 817.152 548.735, 827.036 550.249, 836.921 551.763, 846.806 553.276, 856.691 553.481, 858.030 558.309, 866.787 563.136, 875.545 567.964, 884.302 571.428, 890.586 577.372, 898.628 583.317, 906.669 589.261, 914.711 592.744, 919.423 599.177, 927.078 605.611, 934.734 612.045, 942.389 616.710, 947.941 624.102, 954.677 631.494, 961.412 638.885, 968.147 646.277, 974.883 648.681, 977.074 656.509, 983.297 664.337, 989.519 672.165, 995.742 676.457, 999.154 681.062, 1008.030 685.668, 1016.907 690.317, 1025.866 696.083, 1027.618 705.223, 1023.561 707.614, 1022.500 707.978, 1012.506 708.343, 1002.513 708.707, 992.519 708.747, 991.404 707.064, 981.547 705.380, 971.690 703.696, 961.833 702.012, 951.975 700.328, 942.118 700.118, 940.886 694.879, 932.369 689.639, 923.851 684.442, 915.401 679.540, 906.685 674.639, 897.968 669.738, 889.251 664.837, 880.535 659.935, 871.818 655.034, 863.102 654.076, 861.397 650.596, 852.022 647.116, 842.647 643.637, 833.272 640.157, 823.897 636.678, 814.521 633.198, 805.146 631.074, 799.422 629.013, 789.637 627.021, 780.181 624.961, 770.396 622.900, 760.610 620.839, 750.825 618.779, 741.040 618.066, 737.656 616.005, 727.870 614.898, 722.612 614.278, 712.631 613.657, 702.651 613.037, 692.670 612.417, 682.689 612.376, 682.028 613.971, 672.156 615.567, 662.284 615.713, 661.380 "/><path fill="none" stroke-width="5.0" stroke-linecap="butt" stroke-opacity="1.0" stroke="rgb(255, 255, 255)" stroke-linejoin="round" d=" M 696.083, 1027.618 696.033, 1017.618 695.983, 1007.618 695.933, 997.618 695.909, 992.856 694.389, 982.973 692.868, 973.089 691.347, 963.205 689.827, 953.322 688.911, 947.368 697.567, 942.362 700.118, 940.886 "/><path fill="none" stroke-width="5.0" stroke-linecap="butt" stroke-opacity="1.0" stroke="rgb(255, 255, 255)" stroke-linejoin="round" d=" M 612.376, 682.028 613.520, 672.093 614.608, 662.642 "/><path fill="none" stroke-width="5.0" stroke-linecap="butt" stroke-opacity="1.0" stroke="rgb(255, 255, 255)" stroke-linejoin="round" d=" M 769.834, 591.145 759.838, 590.865 749.842, 590.584 739.846, 590.304 729.850, 590.023 719.854, 589.743 709.812, 589.461 699.973, 591.245 690.133, 593.029 680.293, 594.813 670.454, 596.597 660.614, 598.381 650.775, 600.165 644.544, 601.295 636.343, 607.017 628.142, 612.739 619.941, 618.460 611.739, 624.182 603.538, 629.904 602.140, 630.880 "/><path fill="none" stroke-width="5.0" stroke-linecap="butt" stroke-opacity="1.0" stroke="rgb(255, 255, 255)" stroke-linejoin="round" d=" M 674.619, 875.123 670.667, 865.936 666.715, 856.750 662.764, 847.564 658.812, 838.378 654.860, 829.192 650.909, 820.006 646.957, 810.820 645.663, 807.811 641.825, 798.577 637.987, 789.343 634.149, 780.109 630.312, 770.874 626.474, 761.640 625.345, 758.924 622.107, 749.463 618.869, 740.002 618.066, 737.656 "/><path fill="none" stroke-width="5.0" stroke-linecap="butt" stroke-opacity="1.0" stroke="rgb(255, 255, 255)" stroke-linejoin="round" d=" M 667.592, 877.212 674.619, 875.123 684.553, 876.267 694.487, 877.412 696.767, 877.674 "/><path fill="none" stroke-width="5.0" stroke-linecap="butt" stroke-opacity="1.0" stroke="rgb(255, 255, 255)" stroke-linejoin="round" d=" M 633.472, 870.710 638.599, 879.295 643.727, 887.881 648.854, 896.467 653.981, 905.052 659.108, 913.638 664.235, 922.223 669.362, 930.809 674.489, 939.395 679.245, 947.359 "/><path fill="none" stroke-width="5.0" stroke-linecap="butt" stroke-opacity="1.0" stroke="rgb(255, 255, 255)" stroke-linejoin="round" d=" M 596.815, 824.717 600.811, 833.884 604.806, 843.051 608.654, 851.878 613.815, 860.443 618.977, 869.008 624.138, 877.573 629.300, 886.137 634.461, 894.702 637.577, 899.871 "/><path fill="none" stroke-width="5.0" stroke-linecap="butt" stroke-opacity="1.0" stroke="rgb(255, 255, 255)" stroke-linejoin="round" d=" M 583.327, 500.270 580.156, 509.754 576.985, 519.238 573.814, 528.722 571.206, 536.521 568.926, 546.257 566.646, 555.994 564.367, 565.731 562.087, 575.467 559.808, 585.204 557.528, 594.941 556.504, 599.315 557.327, 609.281 557.652, 613.216 "/><path fill="none" stroke-width="5.0" stroke-linecap="butt" stroke-opacity="1.0" stroke="rgb(255, 255, 255)" stroke-linejoin="round" d=" M 869.269, 205.020 859.316, 204.058 851.805, 203.333 847.905, 202.956 838.078, 201.105 828.251, 199.253 820.487, 197.791 "/><path fill="none" stroke-width="5.0" stroke-linecap="butt" stroke-opacity="1.0" stroke="rgb(255, 255, 255)" stroke-linejoin="round" d=" M 942.561, 185.424 934.288, 179.806 926.014, 174.189 917.741, 168.572 912.776, 165.201 904.754, 171.172 896.733, 177.143 888.711, 183.114 880.689, 189.085 876.141, 192.471 866.513, 195.175 857.287, 197.765 851.805, 203.333 "/><path fill="none" stroke-width="5.0" stroke-linecap="butt" stroke-opacity="1.0" stroke="rgb(255, 255, 255)" stroke-linejoin="round" d=" M 951.148, 240.802 943.924, 233.887 942.357, 232.387 935.133, 225.473 933.657, 224.060 "/><path fill="none" stroke-width="5.0" stroke-linecap="butt" stroke-opacity="1.0" stroke="rgb(255, 255, 255)" stroke-linejoin="round" d=" M 907.154, 180.264 910.650, 170.896 912.776, 165.201 "/><path fill="none" stroke-width="5.0" stroke-linecap="butt" stroke-opacity="1.0" stroke="rgb(255, 255, 255)" stroke-linejoin="round" d=" M 755.730, 110.157 760.073, 101.149 764.373, 92.232 766.020, 88.815 "/><path fill="none" stroke-width="5.0" stroke-linecap="butt" stroke-opacity="1.0" stroke="rgb(255, 255, 255)" stroke-linejoin="round" d=" M 764.373, 92.232 771.107, 84.840 771.578, 84.324 775.094, 80.465 "/><path fill="none" stroke-width="5.0" stroke-linecap="butt" stroke-opacity="1.0" stroke="rgb(255, 255, 255)" stroke-linejoin="round" d=" M 827.965, 176.609 835.450, 169.977 835.964, 169.521 "/><path fill="none" stroke-width="5.0" stroke-linecap="butt" stroke-opacity="1.0" stroke="rgb(255, 255, 255)" stroke-linejoin="round" d=" M 848.023, 270.880 857.538, 273.955 867.054, 277.030 876.569, 280.104 878.193, 280.629 "/><path fill="none" stroke-width="5.0" stroke-linecap="butt" stroke-opacity="1.0" stroke="rgb(255, 255, 255)" stroke-linejoin="round" d=" M 857.826, 159.653 867.558, 157.353 875.244, 155.537 "/><path fill="none" stroke-width="5.0" stroke-linecap="butt" stroke-opacity="1.0" stroke="rgb(255, 255, 255)" stroke-linejoin="round" d=" M 1044.756, 155.537 1054.488, 157.837 1062.174, 159.653 "/><path fill="none" stroke-width="5.0" stroke-linecap="butt" stroke-opacity="1.0" stroke="rgb(255, 255, 255)" stroke-linejoin="round" d=" M 1084.036, 169.521 1091.520, 176.154 1092.035, 176.609 "/></g></g></svg>